<svg width="114" height="159" viewBox="0 0 114 159" fill="none" xmlns="http://www.w3.org/2000/svg">
<path d="M113.724 109.474C113.342 109.321 112.958 109.175 112.572 109.031C112.57 109.03 112.569 109.029 112.567 109.028C112.566 109.028 112.565 109.027 112.564 109.027C109.358 107.827 106.015 106.93 102.587 106.74C99.305 106.557 95.966 107.028 92.949 108.369C91.381 109.066 89.914 109.991 88.638 111.14C88.445 111.261 88.255 111.386 88.069 111.517C88.057 111.526 88.054 111.539 88.048 111.551C86.1 112.131 84.195 112.845 82.357 113.713C82.512 113.54 82.666 113.366 82.815 113.196C83.538 112.375 84.213 111.512 84.834 110.611C85.162 110.135 85.474 109.648 85.774 109.153C85.989 108.829 86.182 108.492 86.359 108.136C86.934 107.097 87.452 106.026 87.895 104.924C89.504 100.923 90.242 96.61 89.997 92.302C89.865 89.977 89.5 87.628 88.667 85.445C88.683 85.425 88.695 85.404 88.711 85.384C88.939 85.104 88.506 84.749 88.278 85.028C86.079 87.722 86.284 91.367 86.488 94.627C86.706 98.107 86.501 101.555 85.798 104.973C85.597 105.951 85.356 106.92 85.071 107.877C84.8 108.788 84.408 109.683 84.199 110.609C84.19 110.651 84.208 110.677 84.234 110.693C83.778 111.341 83.307 111.978 82.802 112.588C82.421 113.048 82.026 113.498 81.621 113.938C81.542 114.024 81.46 114.108 81.379 114.192C80.847 114.464 80.319 114.745 79.8 115.046C78.575 115.755 77.389 116.54 76.275 117.415C75.457 118.057 74.635 118.742 73.913 119.508C74.366 115.754 74.371 111.949 73.938 108.195C73.993 107.572 74.036 106.948 74.089 106.325C74.76 103.84 75.665 101.425 76.587 99.022C77.679 96.177 78.785 93.307 79.379 90.308C79.546 89.464 79.677 88.612 79.74 87.753C79.792 87.055 79.829 86.335 79.754 85.634C79.779 85.506 79.799 85.378 79.81 85.25C79.815 85.18 79.716 85.115 79.669 85.187C79.668 85.188 79.668 85.189 79.668 85.19C79.622 85.161 79.553 85.172 79.545 85.241C79.537 85.31 79.533 85.378 79.527 85.447C79.196 86.052 78.987 86.739 78.72 87.37C78.399 88.13 78.059 88.884 77.712 89.633C77.033 91.099 76.319 92.55 75.662 94.027C74.479 96.689 73.472 99.489 73.249 102.415C73.216 102.855 73.205 103.297 73.209 103.738C73.134 103.384 73.065 103.029 72.981 102.677C72.719 101.581 72.413 100.5 72.079 99.427C72.093 99.416 72.104 99.4 72.099 99.374C71.8 97.885 71.227 96.467 70.767 95.021C70.538 94.302 70.314 93.581 70.094 92.859C69.867 92.115 69.705 91.301 69.369 90.598C69.336 90.53 69.25 90.525 69.206 90.569C68.717 89.498 68.548 88.384 68.729 87.196C68.944 85.783 69.576 84.491 70.358 83.308C71.247 81.964 72.297 80.736 73.212 79.41C74.106 78.115 74.885 76.739 75.532 75.305C76.855 72.373 77.633 69.181 77.777 65.966C77.91 62.981 77.532 60.012 77.21 57.051C76.845 53.698 76.588 50.325 77.144 46.976C77.15 46.938 77.14 46.909 77.122 46.887C77.125 46.879 77.128 46.871 77.131 46.863C77.166 46.76 77.026 46.694 76.975 46.793C76.963 46.816 76.953 46.84 76.941 46.863C76.933 46.869 76.925 46.873 76.921 46.884C76.912 46.908 76.904 46.933 76.895 46.958C76.294 48.149 75.795 49.395 75.274 50.622C74.728 51.908 74.182 53.193 73.636 54.479C72.537 57.068 71.411 59.646 70.305 62.232C69.213 64.787 68.074 67.326 67.034 69.903C66.046 72.352 65.186 74.89 64.93 77.532C64.808 78.793 64.815 80.072 64.998 81.327C65.057 81.73 65.13 82.146 65.224 82.56C63.208 77.761 61.465 72.89 60.497 67.737C60.057 65.395 59.757 63.028 59.586 60.653C60.962 56.69 62.753 52.867 64.987 49.315C65.339 48.756 65.702 48.203 66.075 47.658C66.203 47.471 66.349 47.284 66.494 47.092C66.702 47.208 66.939 47.259 67.179 47.24C67.759 47.195 68.242 46.724 68.288 46.141C68.312 45.839 68.246 45.547 68.084 45.29C67.911 45.015 67.623 44.839 67.314 44.757C67.012 44.676 66.692 44.737 66.428 44.897C66.166 45.055 65.994 45.333 65.925 45.625C65.893 45.76 65.897 45.896 65.925 46.027C65.92 46.106 65.922 46.185 65.935 46.264C65.96 46.413 66.011 46.559 66.086 46.691C65.985 46.842 65.886 46.994 65.787 47.138C65.454 47.622 65.13 48.112 64.814 48.608C64.18 49.603 63.576 50.618 63.016 51.657C61.9 53.727 60.936 55.875 60.128 58.083C59.913 58.671 59.715 59.264 59.529 59.861C59.181 54.01 59.642 48.114 60.906 42.393C64.46 37.96 69.628 34.873 75.24 33.928C76.217 33.764 77.203 33.669 78.191 33.629C78.596 34.205 79.128 34.723 79.616 35.213C80.233 35.831 80.875 36.424 81.54 36.989C82.835 38.09 84.228 39.076 85.683 39.954C88.84 41.86 92.288 43.064 95.814 44.087C96.881 44.397 97.954 44.691 99.016 45.018C99.523 45.174 100.028 45.336 100.538 45.483C101.001 45.617 101.489 45.814 101.975 45.814C102.03 45.85 102.082 45.888 102.138 45.922C102.418 46.089 102.691 45.631 102.437 45.437C101.596 44.792 100.943 44.024 100.435 43.092C99.914 42.136 99.561 41.101 99.182 40.083C98.799 39.053 98.38 38.037 97.791 37.105C97.271 36.283 96.634 35.537 95.924 34.874C92.962 32.107 88.843 30.96 84.854 31.345C82.657 31.557 80.509 32.184 78.538 33.174C78.438 33.177 78.337 33.176 78.236 33.181C78.213 33.162 78.192 33.141 78.169 33.123C78.081 33.053 77.988 33.109 77.962 33.192C74.404 33.378 70.894 34.347 67.734 36.08C65.247 37.444 63.005 39.252 61.143 41.391C61.887 38.269 62.865 35.203 64.087 32.232C69.142 30.373 74.232 28.257 78.327 24.665C80.305 22.93 81.95 20.887 83.131 18.53C84.449 15.899 85.256 13.044 86.408 10.342C87.715 7.276 89.295 4.327 91.154 1.56C91.219 1.463 91.214 1.361 91.177 1.275C91.401 1.11 91.216 0.691996 90.918 0.809996C90.548 0.955996 90.184 1.117 89.818 1.272C87.619 1.744 85.479 2.639 83.513 3.683C81.14 4.944 78.936 6.502 76.885 8.233C72.405 12.013 68.319 16.572 65.882 21.953C64.481 25.045 63.656 28.398 63.636 31.8C62.327 34.967 61.286 38.237 60.508 41.569C59.843 41.109 59.222 40.59 58.689 39.979C58.034 39.227 57.487 38.386 56.972 37.534C55.909 35.775 54.95 33.975 53.498 32.495C50.779 29.724 46.966 28.204 43.088 28.361C41.115 28.441 39.19 28.942 37.423 29.814C37.405 29.817 37.386 29.818 37.368 29.82C37.334 29.825 37.318 29.846 37.31 29.871C37.204 29.924 37.097 29.974 36.992 30.03C36.86 30.101 36.836 30.283 36.984 30.356C39.807 31.754 42.239 33.821 44.92 35.458C47.603 37.096 50.488 38.4 53.488 39.339C55.111 39.846 56.765 40.245 58.44 40.536C59.075 41.097 59.71 41.657 60.356 42.206C60.341 42.272 60.324 42.338 60.309 42.404C60.308 42.406 60.307 42.407 60.305 42.408C60.256 42.471 60.249 42.538 60.265 42.597C58.971 48.581 58.533 54.753 58.976 60.883C58.992 61.106 59.018 61.327 59.036 61.55C59.009 61.651 58.98 61.751 58.953 61.852C58.933 61.927 59.008 61.972 59.074 61.968C59.585 67.641 60.863 73.216 62.84 78.56C62.892 78.7 62.948 78.838 63.001 78.978C62.198 77.916 61.356 76.881 60.517 75.852C59.141 74.166 57.724 72.512 56.286 70.878C54.368 68.698 52.401 66.562 50.4 64.457C50.426 64.433 50.447 64.402 50.458 64.357C50.501 64.178 50.535 63.996 50.562 63.812C50.759 63.252 50.863 62.633 50.992 62.071C51.169 61.297 51.323 60.518 51.449 59.734C51.697 58.192 51.834 56.63 51.808 55.067C51.759 52.058 51.05 49.15 50.048 46.326C49.768 45.536 49.471 44.751 49.157 43.973C48.904 43.343 48.664 42.698 48.369 42.084C48.356 41.989 48.345 41.894 48.33 41.799C48.32 41.733 48.241 41.739 48.222 41.791C48.201 41.751 48.182 41.709 48.161 41.669C48.053 41.47 47.779 41.656 47.834 41.846C47.869 41.969 47.912 42.091 47.953 42.212C47.93 42.84 47.952 43.469 47.901 44.097C47.838 44.864 47.73 45.626 47.593 46.384C47.31 47.947 46.92 49.489 46.648 51.054C46.382 52.582 46.238 54.135 46.406 55.683C46.567 57.169 47.005 58.613 47.578 59.989C47.902 60.768 48.269 61.528 48.657 62.277C48.794 62.543 48.933 62.81 49.073 63.077C48.526 62.508 47.981 61.937 47.428 61.374C44.385 58.274 41.272 55.243 38.118 52.256C34.985 49.288 31.853 46.3 28.582 43.483C25.391 40.734 21.924 38.045 17.986 36.462C17.485 36.26 16.976 36.08 16.462 35.913C16.248 35.844 16.103 36.144 16.317 36.239C20.216 37.972 23.755 40.342 27.029 43.064C30.33 45.808 33.439 48.79 36.562 51.733C37.136 52.274 37.706 52.821 38.277 53.366C36.668 52.398 34.905 51.673 33.11 51.162C30.343 50.374 27.442 50.089 24.572 50.242C18.972 50.54 13.593 52.605 8.852 55.527C7.525 56.345 6.25101 57.25 5.01301 58.198C3.92101 59.034 2.81001 59.9 1.81501 60.859C1.73601 60.908 1.65302 60.951 1.57502 61.001C1.53902 61.024 1.54801 61.067 1.57301 61.091C1.52401 61.14 1.47 61.187 1.421 61.237C1.407 61.251 1.407 61.267 1.404 61.283C1.194 61.481 0.985012 61.681 0.785012 61.888C0.761012 61.913 0.753016 61.941 0.751016 61.969C0.615016 62.048 0.712009 62.274 0.875009 62.22C5.96401 60.547 11.323 59.979 16.637 59.565C21.807 59.163 27.007 58.878 32.087 57.764C34.504 57.234 36.845 56.487 39.109 55.508C39.13 55.512 39.152 55.515 39.173 55.519C39.282 55.54 39.357 55.483 39.393 55.403C39.395 55.403 39.398 55.403 39.4 55.403C39.448 55.401 39.481 55.382 39.506 55.357C39.904 55.461 40.3 55.568 40.696 55.679C42.424 57.348 44.14 59.03 45.834 60.733C47.051 61.957 48.255 63.194 49.451 64.439C49.467 64.488 49.48 64.539 49.497 64.589C49.53 64.684 49.621 64.717 49.706 64.705C51.421 66.497 53.114 68.31 54.771 70.155C57.658 73.37 60.423 76.688 63.131 80.054C63.299 80.262 63.476 80.462 63.649 80.665C63.829 81.118 64.016 81.568 64.202 82.019C63.016 80.28 61.371 78.851 59.609 77.726C57.29 76.246 54.696 75.281 52.028 74.647C49.313 74.002 46.516 73.67 43.732 73.521C41.101 73.38 38.458 73.416 35.832 73.643C32.858 73.9 29.91 74.406 27.017 75.141C26.86 75.181 26.835 75.421 26.957 75.51C31.175 78.611 36.17 80.538 41.358 81.187C46.362 81.813 51.42 81.44 56.438 81.862C59.219 82.096 61.989 82.583 64.595 83.608C64.696 83.648 64.789 83.638 64.865 83.599C66.578 87.621 68.428 91.587 69.97 95.679C69.656 95.387 69.333 95.103 68.996 94.837C68.102 94.131 67.136 93.516 66.132 92.978C63.92 91.794 61.52 91.017 59.095 90.403C58.385 90.223 57.672 90.06 56.957 89.907C56.207 89.747 55.451 89.564 54.688 89.486C54.625 89.479 54.582 89.549 54.599 89.599C54.577 89.622 54.563 89.654 54.576 89.69C54.753 90.19 55.178 90.602 55.547 90.972C55.957 91.384 56.415 91.747 56.895 92.074C57.854 92.728 58.906 93.235 59.991 93.643C62.482 94.578 65.125 95.033 67.609 95.989C68.264 96.241 68.907 96.528 69.523 96.865C69.843 97.04 70.156 97.23 70.458 97.436C70.523 97.48 70.586 97.526 70.649 97.572C72.451 102.865 73.495 108.335 73.462 113.96C73.461 114.141 73.455 114.322 73.452 114.503C73.18 113.898 72.892 113.299 72.608 112.706C72.144 111.735 71.668 110.77 71.179 109.811C70.889 109.241 70.585 108.679 70.285 108.114C70.362 108.08 70.421 108.015 70.424 107.918C70.432 107.595 70.316 107.302 70.222 106.996C70.128 106.69 70.037 106.383 69.95 106.074C69.763 105.407 69.588 104.737 69.44 104.06C69.176 102.85 68.952 101.627 68.79 100.399C68.794 100.397 68.799 100.397 68.803 100.394C68.925 100.334 69.039 100.257 69.116 100.141C69.181 100.043 69.21 99.974 69.242 99.86C69.261 99.791 69.26 99.723 69.261 99.652C69.263 99.398 69.123 99.144 68.935 98.98C68.751 98.819 68.486 98.755 68.247 98.811C68.24 98.812 68.234 98.815 68.227 98.816C68.197 98.824 68.166 98.826 68.137 98.839C68.119 98.847 68.102 98.859 68.085 98.868C68.065 98.877 68.044 98.879 68.024 98.89C67.914 98.949 67.812 99.029 67.739 99.133C67.576 99.365 67.506 99.663 67.617 99.934C67.67 100.064 67.763 100.179 67.875 100.269C67.876 100.269 67.876 100.27 67.877 100.27C67.921 100.305 67.967 100.335 68.017 100.36C68.043 100.374 68.068 100.386 68.095 100.397C68.101 100.399 68.107 100.403 68.113 100.405C68.132 100.411 68.151 100.414 68.17 100.42C68.207 100.431 68.244 100.443 68.282 100.449C68.367 100.465 68.454 100.467 68.539 100.46C68.646 101.701 68.792 102.934 69.011 104.161C69.127 104.809 69.248 105.457 69.39 106.1C69.434 106.299 69.481 106.497 69.528 106.695C69.059 105.839 68.584 104.986 68.096 104.141C67.477 103.069 66.825 102.021 66.163 100.976C66.107 100.887 65.984 100.982 66.033 101.069C68.12 104.831 70.098 108.659 71.886 112.573C72.393 113.682 72.858 114.817 73.394 115.911C73.397 115.917 73.402 115.92 73.405 115.925C73.142 121.467 71.909 126.965 69.769 132.083C69.752 132.123 69.734 132.161 69.716 132.201C69.723 131.824 69.706 131.446 69.667 131.068C69.731 130.231 69.76 129.391 69.758 128.551C69.754 126.233 69.513 123.911 69.027 121.643C68.05 117.079 66.173 112.721 63.483 108.903C61.986 106.779 60.219 104.72 58.127 103.163C58.028 103.089 57.927 103.152 57.904 103.241C57.804 103.222 57.71 103.357 57.78 103.442C58.086 103.815 58.425 104.159 58.726 104.537C59.037 104.929 59.314 105.349 59.566 105.781C60.067 106.641 60.445 107.571 60.749 108.517C61.424 110.613 61.709 112.806 62.221 114.942C62.48 116.023 62.796 117.087 63.226 118.112C63.647 119.117 64.151 120.085 64.682 121.035C65.731 122.912 66.909 124.723 67.802 126.683C67.956 127.022 68.099 127.367 68.235 127.715C68.318 128.083 68.401 128.451 68.545 128.801C68.567 128.855 68.604 128.888 68.647 128.906C68.756 129.271 68.857 129.638 68.932 130.011C69.068 130.679 69.126 131.342 69.13 132.009C69.063 132.687 68.972 133.364 68.892 134.041C64.221 143.864 56.1 151.757 46.309 156.488C45.07 157.087 43.799 157.63 42.521 158.142C42.189 158.275 42.382 158.771 42.719 158.658C51.48 155.736 59.233 149.76 64.786 142.341C65.681 142.068 66.559 141.733 67.449 141.442C68.406 141.128 69.37 140.837 70.341 140.571C72.299 140.035 74.287 139.61 76.293 139.297C77.422 139.121 78.581 139.038 79.693 138.776C79.808 138.749 79.842 138.552 79.697 138.545C78.701 138.498 77.693 138.652 76.709 138.797C75.696 138.946 74.687 139.124 73.683 139.33C73.46 139.376 73.237 139.428 73.014 139.476C73.32 139.066 73.603 138.642 73.875 138.207C74.033 137.953 74.191 137.699 74.349 137.446C74.45 137.283 74.558 137.12 74.659 136.954C74.697 136.965 74.734 136.981 74.772 136.988C75.054 137.035 75.381 136.959 75.602 136.773C75.724 136.671 75.831 136.543 75.883 136.39C75.953 136.182 75.952 135.978 75.891 135.768C75.783 135.398 75.409 135.091 75.012 135.141C74.913 135.153 74.824 135.189 74.743 135.235C74.639 135.275 74.546 135.34 74.474 135.433C74.456 135.456 74.443 135.481 74.428 135.506C74.415 135.516 74.4 135.523 74.388 135.534C74.273 135.639 74.171 135.762 74.116 135.911C74.053 136.083 74.043 136.249 74.091 136.426C74.112 136.503 74.146 136.574 74.19 136.637C74.086 136.811 73.987 136.989 73.887 137.163L73.437 137.939C73.137 138.457 72.852 138.976 72.608 139.523C72.601 139.539 72.608 139.552 72.606 139.567C70.965 139.936 69.338 140.375 67.742 140.904C66.869 141.194 65.984 141.492 65.137 141.864C66.13 140.503 67.058 139.101 67.896 137.656C68.889 135.943 69.761 134.162 70.524 132.336C73.277 131.121 76.407 131.176 79.286 131.951C82.964 132.941 86.152 135.107 89.255 137.235C90.929 138.383 92.75 139.538 94.837 139.643C95.024 139.652 95.098 139.432 94.994 139.329C94.143 135.601 90.84 133.048 87.443 131.694C85.536 130.934 83.509 130.442 81.487 130.101C79.705 129.801 77.885 129.652 76.08 129.789C75.098 129.863 74.121 130.025 73.173 130.296C72.691 130.434 72.216 130.602 71.756 130.801C71.505 130.91 71.254 131.017 71.012 131.142C72.376 127.614 73.318 123.921 73.824 120.168C74.618 119.483 75.392 118.775 76.22 118.129C76.722 117.737 77.236 117.36 77.761 116.998C79.86 116.688 81.987 116.544 84.11 116.58C84.128 116.621 84.154 116.66 84.202 116.693C86.663 118.382 89.316 119.779 92.09 120.881C93.473 121.43 94.885 121.903 96.318 122.303C97.689 122.686 99.095 123.04 100.507 123.23C101.711 123.392 103.026 123.336 103.936 122.432C104.041 122.327 104.021 122.093 103.895 122.012C100.855 120.06 97.536 118.565 94.066 117.563C90.593 116.56 86.974 116.08 83.36 116.124C81.701 116.144 80.05 116.301 78.415 116.573C78.721 116.373 79.023 116.167 79.335 115.977C79.677 115.77 80.029 115.581 80.378 115.386C80.402 115.42 80.447 115.439 80.492 115.411C80.664 115.3 80.827 115.17 80.989 115.04C82.678 114.145 84.443 113.393 86.249 112.767C86.973 112.516 87.703 112.289 88.437 112.078C89.751 113.009 91.333 113.575 92.892 113.93C94.554 114.308 96.267 114.441 97.97 114.393C101.476 114.293 104.884 113.393 108.168 112.212C110.038 111.54 111.875 110.781 113.708 110.016C113.936 109.925 113.97 109.573 113.724 109.474ZM88.409 85.801C88.81 87.671 89.186 89.549 89.35 91.457C89.531 93.568 89.494 95.701 89.228 97.803C88.956 99.955 88.445 102.06 87.706 104.082C87.931 103.02 88.085 101.942 88.167 100.862C88.416 97.579 88.104 94.294 88.101 91.009C88.1 89.263 88.214 87.533 88.409 85.801ZM86.972 100.856C87.149 99.17 87.192 97.468 87.122 95.775C87.05 94.043 86.857 92.308 86.957 90.573C87.042 89.101 87.357 87.612 88.082 86.328C87.633 89.19 87.821 92.159 87.859 95.036C87.902 98.286 87.86 101.613 87.057 104.782C86.723 106.101 86.216 107.355 85.607 108.564C85.378 108.96 85.144 109.353 84.895 109.738C84.843 109.818 84.785 109.894 84.733 109.974C84.979 109.412 85.168 108.813 85.359 108.244C85.619 107.469 85.852 106.684 86.059 105.893C86.492 104.239 86.793 102.556 86.972 100.856ZM98.065 39.036C98.099 39.064 98.134 39.079 98.169 39.087C98.311 39.42 98.446 39.755 98.572 40.095C98.999 41.243 99.421 42.526 100.054 43.651C98.292 41.779 96.382 40.022 94.343 38.48C91.736 36.508 88.851 34.945 85.697 34.053C84.241 33.641 82.756 33.379 81.262 33.254C85.782 33.287 90.255 34.387 94.261 36.528C95.606 37.246 96.883 38.075 98.065 39.036ZM90.208 32.244C92.091 32.778 93.864 33.734 95.32 35.045C96.031 35.686 96.659 36.412 97.188 37.21C97.393 37.518 97.571 37.84 97.739 38.167C95.732 36.739 93.566 35.526 91.253 34.672C88.693 33.727 85.993 33.145 83.268 32.982C82.04 32.909 80.815 32.931 79.594 33.04C82.978 31.768 86.675 31.242 90.208 32.244ZM84.56 34.225C87.727 34.96 90.665 36.385 93.307 38.267C94.786 39.32 96.164 40.499 97.496 41.732C98.504 42.665 99.465 43.645 100.432 44.618C99.813 44.308 99.136 44.078 98.503 43.809C97.76 43.492 97.02 43.169 96.282 42.839C94.842 42.195 93.415 41.521 91.998 40.827C89.131 39.421 86.316 37.912 83.554 36.311C82.774 35.859 81.999 35.399 81.227 34.932C80.842 34.699 80.457 34.465 80.071 34.232C79.895 34.125 79.721 34.013 79.541 33.913C79.327 33.794 79.093 33.737 78.877 33.622C78.828 33.596 78.782 33.672 78.826 33.705C78.993 33.829 79.123 33.986 79.286 34.113C79.448 34.239 79.628 34.344 79.801 34.454C80.131 34.664 80.461 34.873 80.795 35.077C81.468 35.489 82.144 35.896 82.824 36.297C84.216 37.118 85.621 37.915 87.04 38.687C89.861 40.223 92.731 41.67 95.648 43.016C96.467 43.394 97.287 43.768 98.112 44.132C98.242 44.19 98.373 44.251 98.504 44.312C97.926 44.154 97.348 43.994 96.77 43.833C94.953 43.326 93.141 42.785 91.373 42.128C88.118 40.918 85.072 39.217 82.366 37.037C81.619 36.435 80.896 35.806 80.204 35.143C79.858 34.811 79.524 34.468 79.187 34.129C79.019 33.96 78.857 33.784 78.691 33.613C80.663 33.572 82.639 33.778 84.56 34.225ZM48.043 29.559C49.858 30.222 51.523 31.249 52.917 32.59C54.365 33.984 55.332 35.707 56.346 37.419C52.411 33.867 48.068 30.281 42.698 29.416C41.968 29.298 41.227 29.242 40.487 29.245C40.301 29.246 40.113 29.248 39.925 29.255C42.579 28.533 45.447 28.611 48.043 29.559ZM38.801 29.615C39.306 29.57 39.808 29.514 40.318 29.51C41.001 29.505 41.684 29.559 42.36 29.659C43.671 29.853 44.948 30.209 46.178 30.701C48.777 31.743 51.12 33.356 53.257 35.149C54.501 36.193 55.688 37.3 56.888 38.392C56.914 38.416 56.941 38.427 56.968 38.432C57.087 38.619 57.206 38.805 57.333 38.991C55.697 37.564 54.048 36.152 52.305 34.858C49.515 32.787 46.444 31.042 43.055 30.18C41.564 29.801 40.046 29.635 38.522 29.717C38.614 29.681 38.708 29.649 38.801 29.615ZM37.931 29.967C41.172 29.877 44.375 30.752 47.264 32.187C50.2 33.645 52.801 35.666 55.287 37.786C51.225 35.139 46.828 32.986 42.257 31.398C41.463 31.122 40.664 30.863 39.858 30.626C39.163 30.421 38.454 30.193 37.738 30.059C37.803 30.029 37.866 29.996 37.931 29.967ZM49.692 37.452C48.243 36.821 46.833 36.1 45.472 35.295C44.132 34.502 42.857 33.607 41.575 32.725C40.268 31.826 38.931 30.975 37.522 30.245C38.176 30.479 38.86 30.641 39.523 30.844C40.221 31.057 40.916 31.281 41.607 31.517C43.024 31.999 44.423 32.536 45.8 33.124C48.572 34.308 51.256 35.7 53.815 37.294C55.142 38.121 56.431 39.009 57.692 39.935C54.945 39.399 52.26 38.571 49.692 37.452ZM86.526 8.86699C85.926 10.192 85.383 11.541 84.882 12.906C84.375 14.286 83.898 15.68 83.308 17.027C82.751 18.298 82.097 19.52 81.274 20.64C80.517 21.67 79.66 22.631 78.738 23.515C76.839 25.335 74.627 26.816 72.321 28.067C70.703 28.945 69.027 29.717 67.339 30.461C67.455 30.404 67.573 30.348 67.688 30.289C68.832 29.71 69.941 29.062 71.006 28.347C73.177 26.89 75.154 25.164 76.897 23.216C80.517 19.168 83.106 14.357 85.732 9.64C86.726 7.855 87.746 6.08399 88.829 4.35299C88 5.82599 87.223 7.32699 86.526 8.86699ZM81.981 15.381C79.243 19.959 76.022 24.271 71.681 27.449C70.512 28.305 69.283 29.081 68.005 29.765C66.844 30.386 65.638 30.895 64.431 31.413C64.436 31.402 64.441 31.391 64.446 31.38C65.411 30.838 66.314 30.149 67.215 29.516C68.271 28.775 69.309 28.008 70.322 27.209C72.294 25.653 74.169 23.959 75.789 22.035C77.526 19.972 78.891 17.644 80.206 15.3C81.52 12.958 82.866 10.626 84.458 8.458C85.933 6.451 87.572 4.567 89.318 2.789C86.663 6.857 84.473 11.215 81.981 15.381ZM84.009 6.318C82.264 7.993 80.602 9.771 79.063 11.637C75.766 15.634 72.739 19.837 69.684 24.02C68.808 25.219 67.921 26.41 67.022 27.591C66.355 28.468 65.648 29.324 64.982 30.206C69.378 20.54 76.257 12.007 84.749 5.633C84.502 5.861 84.251 6.086 84.009 6.318ZM86.665 4.612C87.154 4.201 87.652 3.802 88.157 3.411C86.987 4.682 85.878 6.006 84.835 7.387C83.24 9.5 81.831 11.71 80.509 14.002C79.154 16.35 77.842 18.744 76.177 20.892C74.616 22.905 72.768 24.678 70.803 26.293C69.713 27.188 68.585 28.033 67.444 28.861C66.859 29.286 66.27 29.705 65.678 30.121C65.495 30.249 65.312 30.378 65.129 30.505C65.748 29.767 66.321 28.984 66.901 28.22C67.708 27.157 68.502 26.085 69.291 25.008C70.846 22.885 72.392 20.755 73.966 18.646C76.933 14.671 80.082 10.812 83.644 7.351C84.618 6.404 85.625 5.487 86.665 4.612ZM87.857 2.96499C78.832 8.64499 71.351 16.846 66.297 26.2C65.748 27.217 65.235 28.25 64.749 29.295C64.96 28.635 65.182 27.978 65.422 27.328C65.912 25.999 66.461 24.689 67.068 23.408C68.308 20.79 69.804 18.298 71.562 15.993C74.776 11.777 78.725 8.063 83.226 5.25C84.983 4.152 86.804 3.18 88.686 2.333C88.404 2.535 88.128 2.74799 87.857 2.96499ZM64.261 30.307C64.249 30.35 64.242 30.394 64.231 30.437C64.206 30.493 64.18 30.549 64.155 30.606C64.468 24.993 67.03 19.72 70.492 15.353C72.284 13.093 74.315 11.018 76.484 9.119C78.457 7.392 80.571 5.816 82.848 4.512C84.108 3.79 85.421 3.156 86.777 2.635C86.904 2.586 87.032 2.549 87.16 2.503C83.654 4.272 80.375 6.49599 77.441 9.10399C73.253 12.827 69.863 17.368 67.332 22.362C66.587 23.833 65.922 25.343 65.355 26.891C65.074 27.656 64.813 28.43 64.578 29.21C64.466 29.575 64.361 29.94 64.261 30.307ZM4.01402 59.704C5.05902 58.968 6.15001 58.294 7.27601 57.688C9.54401 56.467 11.959 55.518 14.44 54.826C19.884 53.308 25.639 53.092 31.231 53.758C33.174 53.989 35.1 54.336 37.009 54.762C32.748 54.213 28.424 54.093 24.144 54.436C19.115 54.839 14.088 55.922 9.32801 57.585C7.98901 58.053 6.66701 58.569 5.36701 59.133C4.89801 59.336 4.42002 59.543 3.94502 59.756C3.96802 59.74 3.99002 59.721 4.01402 59.704ZM2.92201 60.527C3.63101 60.188 4.33401 59.83 5.05201 59.514C6.20401 59.006 7.37199 58.536 8.55399 58.104C10.924 57.238 13.352 56.523 15.812 55.963C20.698 54.851 25.769 54.387 30.777 54.562C32.794 54.632 34.798 54.82 36.789 55.115C32.344 55.23 27.895 55.436 23.473 55.875C18.54 56.365 13.63 57.202 8.869 58.603C6.599 59.271 4.37502 60.086 2.23002 61.08C2.45902 60.893 2.69001 60.709 2.92201 60.527ZM25.105 58.402C19.874 58.951 14.602 59.086 9.39402 59.854C6.69302 60.252 4.034 60.826 1.455 61.715C1.59 61.602 1.72802 61.492 1.86402 61.38C6.15202 59.606 10.6 58.28 15.163 57.421C20.221 56.469 25.361 56.003 30.497 55.737C33.058 55.604 35.621 55.532 38.183 55.445C34.048 57.163 29.529 57.938 25.105 58.402ZM39.603 54.822C34.287 53.429 28.784 52.667 23.285 52.925C17.935 53.176 12.603 54.453 7.82502 56.9C7.09202 57.275 6.36402 57.681 5.64802 58.113C6.44702 57.53 7.25801 56.963 8.09101 56.426C10.396 54.94 12.82 53.645 15.381 52.656C20.612 50.638 26.376 49.995 31.868 51.272C34.705 51.932 37.328 53.136 39.732 54.752C39.734 54.754 39.735 54.755 39.737 54.757C39.693 54.779 39.648 54.8 39.603 54.822ZM48.185 60.278C47.57 58.921 47.07 57.501 46.845 56.024C46.398 53.088 47.218 50.188 47.788 47.323C47.718 48.644 47.688 49.966 47.71 51.289C47.758 54.174 48.029 57.021 48.475 59.871C48.559 60.408 48.659 60.942 48.765 61.475C48.564 61.079 48.368 60.682 48.185 60.278ZM49.481 62.822C49.444 62.673 49.408 62.524 49.374 62.375C49.222 61.699 49.088 61.019 48.952 60.34C48.67 58.93 48.475 57.504 48.315 56.076C47.995 53.229 47.901 50.365 48.036 47.503C48.094 46.283 48.224 45.071 48.335 43.857C48.401 44.643 48.479 45.429 48.545 46.21C48.668 47.673 48.793 49.136 48.907 50.6C49.136 53.528 49.366 56.456 49.599 59.384C49.712 60.812 49.826 62.24 49.945 63.668C49.792 63.384 49.636 63.103 49.481 62.822ZM48.799 46.764C48.73 45.956 48.66 45.147 48.588 44.339C48.569 44.127 48.552 43.914 48.535 43.701C48.569 43.786 48.605 43.871 48.639 43.956C48.662 44.016 48.684 44.076 48.708 44.135C49.328 46.501 49.867 48.877 50.18 51.309C50.534 54.061 50.675 56.856 50.532 59.629C50.492 60.411 50.433 61.191 50.355 61.97C50.325 62.264 50.285 62.559 50.245 62.854C49.778 57.489 49.259 52.129 48.799 46.764ZM50.839 60.138C50.893 58.747 50.902 57.352 50.851 55.96C50.749 53.169 50.41 50.387 49.837 47.654C49.745 47.217 49.647 46.781 49.543 46.346C49.986 47.586 50.384 48.841 50.706 50.119C51.065 51.544 51.308 53.001 51.39 54.469C51.476 56.029 51.366 57.601 51.148 59.146C51.046 59.869 50.914 60.588 50.769 61.303C50.793 60.915 50.823 60.527 50.839 60.138ZM50.262 81.13C47.727 81.099 45.187 81.078 42.661 80.84C40.106 80.6 37.584 80.107 35.155 79.27C33.435 78.678 31.777 77.924 30.193 77.037C30.387 77.108 30.581 77.178 30.773 77.244C31.936 77.643 33.132 77.941 34.34 78.163C36.856 78.625 39.415 78.76 41.966 78.863C44.534 78.967 47.102 79.066 49.653 79.392C52.2 79.717 54.722 80.208 57.211 80.836C58.453 81.149 59.682 81.508 60.901 81.895C57.417 81.216 53.819 81.174 50.262 81.13ZM50.945 79.121C48.395 78.781 45.836 78.605 43.267 78.505C40.726 78.406 38.174 78.338 35.652 77.987C34.249 77.791 32.853 77.512 31.498 77.095C30.816 76.885 30.144 76.642 29.489 76.359C29.145 76.211 28.806 76.05 28.467 75.89C29.271 76.105 30.106 76.247 30.907 76.398C32.132 76.63 33.366 76.813 34.602 76.969C37.103 77.284 39.616 77.478 42.129 77.672C47.116 78.057 52.137 78.449 56.982 79.763C58.753 80.243 60.481 80.853 62.143 81.615C58.496 80.45 54.74 79.627 50.945 79.121ZM29.164 75.673C29.769 75.701 30.378 75.693 30.965 75.696C32.157 75.703 33.348 75.669 34.539 75.626C36.979 75.537 39.423 75.404 41.865 75.497C46.747 75.683 51.625 76.679 56.18 78.451C57.59 79 58.971 79.62 60.322 80.3C57.257 79.184 54.022 78.521 50.795 78.082C45.79 77.401 40.733 77.268 35.715 76.716C34.327 76.563 32.943 76.378 31.567 76.142C30.871 76.023 30.176 75.893 29.485 75.746C29.377 75.724 29.271 75.698 29.164 75.673ZM50.163 76.185C47.774 75.658 45.34 75.318 42.897 75.18C40.459 75.041 38.021 75.135 35.584 75.236C34.231 75.292 32.877 75.348 31.522 75.357C30.815 75.362 30.109 75.354 29.403 75.331C29.033 75.319 28.665 75.296 28.296 75.283C33.015 74.167 37.895 73.661 42.739 73.859C45.423 73.969 48.112 74.261 50.744 74.806C53.452 75.366 56.116 76.239 58.526 77.612C60.192 78.561 61.661 79.762 62.941 81.156C58.968 78.859 54.646 77.175 50.163 76.185ZM65.641 81.497C65.449 80.379 65.41 79.233 65.486 78.102C65.66 75.518 66.427 73.017 67.347 70.61C68.318 68.071 69.399 65.571 70.445 63.062C71.498 60.537 72.529 58.002 73.588 55.48C74.189 54.049 74.79 52.618 75.391 51.187C75.571 50.76 75.753 50.332 75.936 49.904C75.814 50.314 75.692 50.724 75.568 51.134C75.138 52.559 74.716 53.987 74.29 55.414C73.45 58.234 72.613 61.054 71.789 63.878C70.959 66.721 70.128 69.563 69.298 72.406C68.88 73.837 68.462 75.267 68.044 76.698C67.636 78.093 67.218 79.487 66.924 80.912C66.685 82.068 66.536 83.275 66.544 84.474C66.194 83.489 65.82 82.54 65.641 81.497ZM67.325 81.542C67.573 80.151 67.958 78.79 68.351 77.435C68.754 76.043 69.158 74.652 69.561 73.261C71.188 67.649 72.824 62.04 74.421 56.419C74.865 54.857 75.314 53.295 75.752 51.731C76.016 50.789 76.291 49.847 76.544 48.901C76.23 51.218 76.334 53.586 76.523 55.915C76.586 56.693 76.66 57.471 76.733 58.249C76.718 58.272 76.707 58.3 76.704 58.335C76.225 63.601 73.512 68.244 71.157 72.858C69.006 77.073 67.103 81.536 67.3 86.361C67.305 86.469 67.315 86.576 67.322 86.685C66.961 85.008 67.019 83.257 67.325 81.542ZM68.359 80.614C69.715 75.614 72.638 71.252 74.738 66.562C75.691 64.433 76.482 62.217 76.884 59.919C77.028 61.594 77.136 63.271 77.093 64.953C77.044 66.89 76.774 68.822 76.299 70.701C76.143 70.961 75.985 71.219 75.82 71.473C75.421 72.084 75.005 72.684 74.583 73.28C73.759 74.442 72.909 75.586 72.1 76.759C70.554 79.001 69.172 81.364 68.433 84.003C68.102 85.186 67.865 86.49 67.944 87.743C67.939 87.846 67.932 87.948 67.931 88.051C67.485 85.606 67.705 83.027 68.359 80.614ZM68.361 85.617C68.421 85.221 68.492 84.828 68.583 84.439C68.885 83.142 69.401 81.891 70 80.705C71.261 78.207 72.987 75.994 74.621 73.736C75.091 73.086 75.555 72.431 76.001 71.763C76.004 71.758 76.007 71.754 76.01 71.749C75.743 72.647 75.432 73.532 75.068 74.395C74.441 75.88 73.685 77.31 72.789 78.649C71.892 79.989 70.845 81.219 69.943 82.556C69.296 83.514 68.73 84.529 68.361 85.617ZM64.944 94.692C62.462 94.018 59.897 93.457 57.664 92.125C57.094 91.785 56.556 91.395 56.058 90.955C55.816 90.741 55.581 90.519 55.363 90.281C55.345 90.261 55.327 90.242 55.309 90.222C56.029 90.587 56.776 90.902 57.511 91.233C58.459 91.66 59.409 92.081 60.361 92.498C62.265 93.332 64.169 94.168 66.082 94.981C66.205 95.033 66.329 95.085 66.452 95.137C65.954 94.978 65.45 94.829 64.944 94.692ZM66.666 94.809C65.703 94.416 64.74 94.023 63.779 93.627C61.857 92.834 59.954 91.996 58.05 91.161C57.021 90.709 56.003 90.21 54.947 89.826C54.933 89.812 54.921 89.796 54.907 89.782C59.221 90.937 63.35 92.614 67.128 94.998C66.975 94.934 66.82 94.871 66.666 94.809ZM69.567 96.134C69.551 96.123 69.535 96.113 69.519 96.102C69.515 96.066 69.501 96.031 69.464 96.006C69.32 95.909 69.165 95.831 69.007 95.758C68.714 95.559 68.423 95.357 68.126 95.165C67.155 94.54 66.158 93.954 65.138 93.412C63.108 92.333 60.992 91.401 58.812 90.665C59.939 90.949 61.059 91.264 62.158 91.641C64.38 92.403 66.534 93.413 68.413 94.836C68.906 95.209 69.378 95.609 69.825 96.036C69.978 96.183 70.124 96.338 70.271 96.491C70.295 96.559 70.321 96.627 70.345 96.695C70.091 96.501 69.828 96.317 69.567 96.134ZM73.695 104.904C73.628 104.196 73.618 103.484 73.661 102.774C73.743 101.397 74.004 100.034 74.372 98.706C75.192 95.74 76.6 92.986 77.894 90.209C78.275 89.392 78.648 88.572 78.99 87.738C79.134 87.387 79.3 87.022 79.445 86.65C79.444 86.669 79.442 86.688 79.441 86.707C79.332 86.924 79.261 87.163 79.179 87.395C79.038 87.793 78.899 88.191 78.759 88.589C78.492 89.349 78.231 90.111 77.968 90.873C77.446 92.386 76.92 93.898 76.405 95.413C75.426 98.293 74.492 101.21 73.935 104.205C73.871 104.552 73.805 104.903 73.743 105.256C73.726 105.138 73.706 105.021 73.695 104.904ZM75.234 100.328C76.055 97.305 77.134 94.353 78.15 91.392C78.436 90.557 78.726 89.724 79.007 88.887C79.114 88.568 79.222 88.249 79.329 87.93C79.258 88.528 79.172 89.126 79.062 89.718C78.78 91.225 78.376 92.705 77.902 94.162C76.92 97.177 75.66 100.093 74.683 103.11C74.568 103.464 74.464 103.82 74.36 104.176C74.581 102.879 74.89 101.594 75.234 100.328ZM65.671 121.704C64.497 119.727 63.458 117.72 62.862 115.488C62.279 113.305 61.995 111.052 61.354 108.882C61.213 108.405 61.051 107.935 60.872 107.472C61.138 108.014 61.405 108.555 61.661 109.102C62.378 110.633 63.063 112.179 63.706 113.743C64.992 116.871 66.112 120.067 67.065 123.313C67.21 123.808 67.342 124.307 67.479 124.805C66.906 123.754 66.282 122.732 65.671 121.704ZM68.741 127.461C68.693 127.337 68.639 127.215 68.588 127.093C68.507 126.806 68.424 126.521 68.351 126.24C68.133 125.405 67.906 124.573 67.666 123.745C67.196 122.121 66.684 120.509 66.127 118.912C65.014 115.72 63.743 112.576 62.284 109.526C61.867 108.654 61.436 107.788 60.993 106.928C60.883 106.714 60.774 106.495 60.665 106.275C60.935 106.579 61.197 106.89 61.457 107.203C63.035 109.699 64.437 112.279 65.595 115.011C66.956 118.221 67.941 121.59 68.561 125.02C68.743 126.029 68.858 127.043 68.958 128.059C68.888 127.857 68.818 127.656 68.741 127.461ZM68.927 125.596C68.633 123.878 68.246 122.175 67.767 120.498C66.805 117.127 65.497 113.849 63.829 110.764C63.495 110.146 63.144 109.537 62.784 108.933C64.025 110.675 65.116 112.516 66.014 114.459C67.887 118.514 68.994 122.915 69.223 127.378C69.13 126.781 69.028 126.187 68.927 125.596ZM93.929 139.076C93.359 138.857 92.836 138.559 92.348 138.149C91.663 137.573 91.09 136.875 90.512 136.195C89.508 135.014 88.418 133.949 87.134 133.072C86.838 132.87 86.535 132.679 86.226 132.496C87.734 133.187 89.163 134.052 90.47 135.081C91.223 135.674 91.943 136.315 92.617 136.996C93.316 137.703 93.925 138.476 94.579 139.222C94.359 139.183 94.143 139.133 93.929 139.076ZM80.703 130.428C84.503 130.963 88.57 132.043 91.519 134.623C92.734 135.686 93.726 136.996 94.372 138.473C93.997 137.948 93.57 137.453 93.141 136.981C92.55 136.332 91.917 135.719 91.243 135.157C89.894 134.032 88.406 133.071 86.825 132.306C85.021 131.434 83.096 130.841 81.125 130.515C80.948 130.477 80.77 130.447 80.592 130.415C80.629 130.42 80.666 130.422 80.703 130.428ZM75.846 130.686C77.574 130.543 79.318 130.613 81.03 130.896C81.268 130.935 81.503 130.989 81.74 131.037C82.1 131.13 82.457 131.235 82.81 131.353C84.223 131.825 85.577 132.484 86.81 133.322C88.123 134.215 89.233 135.302 90.258 136.508C90.785 137.127 91.32 137.744 91.938 138.273C91.176 137.874 90.448 137.399 89.74 136.91C88.18 135.833 86.629 134.747 84.985 133.8C81.937 132.045 78.568 130.768 75.006 130.844C74.761 130.849 74.516 130.864 74.272 130.883C74.794 130.799 75.319 130.729 75.846 130.686ZM100.52 122.615C99.207 122.428 97.901 122.108 96.623 121.759C93.904 121.017 91.261 119.985 88.752 118.701C87.72 118.173 86.712 117.596 85.725 116.986C87.72 117.733 89.749 118.394 91.754 119.112C94.025 119.925 96.281 120.774 98.536 121.628C99.459 121.978 100.38 122.335 101.301 122.691C101.033 122.678 100.77 122.65 100.52 122.615ZM87.953 116.845C91.481 117.274 94.949 118.201 98.212 119.61C99.945 120.358 101.612 121.258 103.201 122.278C103.198 122.28 103.196 122.28 103.193 122.282C103.188 122.28 103.186 122.276 103.181 122.274C98.764 120.43 94.286 118.754 89.674 117.465C88.737 117.203 87.797 116.946 86.848 116.732C87.217 116.765 87.586 116.8 87.953 116.845ZM85.592 116.644C85.601 116.655 85.608 116.668 85.625 116.673C87.925 117.358 90.255 117.926 92.543 118.657C94.813 119.382 97.058 120.19 99.27 121.076C100.398 121.528 101.503 122.03 102.6 122.55C102.485 122.586 102.37 122.623 102.249 122.644C97.805 120.927 93.326 119.303 88.822 117.749C87.7 117.362 86.579 116.974 85.442 116.634C85.492 116.637 85.542 116.641 85.592 116.644ZM97.111 107.64C100.548 106.987 104.078 107.275 107.466 108.072C108.063 108.212 108.654 108.374 109.242 108.545C108.592 108.47 107.942 108.395 107.29 108.333C105.541 108.166 103.785 108.054 102.027 108.046C98.867 108.031 95.705 108.379 92.686 109.345C92.216 109.495 91.746 109.661 91.281 109.842C93.063 108.758 95.059 108.03 97.111 107.64ZM89.878 110.814C90.669 110.444 91.473 110.107 92.308 109.832C93.777 109.35 95.286 109.035 96.817 108.827C100.118 108.378 103.46 108.511 106.763 108.855C107.719 108.955 108.673 109.072 109.626 109.197C110.07 109.255 110.516 109.324 110.962 109.383C109.989 109.326 109.012 109.313 108.042 109.302C106.569 109.285 105.097 109.289 103.624 109.328C100.653 109.408 97.682 109.621 94.741 110.063C92.955 110.332 91.182 110.697 89.436 111.156C89.58 111.037 89.731 110.928 89.878 110.814ZM109.709 109.954C109.121 110.063 108.533 110.171 107.946 110.283C106.355 110.587 104.765 110.901 103.171 111.184C100.027 111.742 96.815 112.203 93.615 112.186C92.719 112.181 91.822 112.141 90.93 112.061C90.374 112.011 89.821 111.938 89.268 111.865C93.618 110.7 98.117 110.169 102.621 110C104.271 109.938 105.923 109.919 107.575 109.926C108.284 109.929 108.996 109.944 109.709 109.954ZM93.767 113.633C92.141 113.347 90.629 112.799 89.138 112.132C90.399 112.368 91.712 112.432 92.979 112.463C94.569 112.502 96.166 112.462 97.751 112.329C101.002 112.056 104.226 111.507 107.439 110.951C108.426 110.78 109.414 110.608 110.4 110.429C110.864 110.345 111.329 110.26 111.793 110.176C106.076 112.539 100.017 114.735 93.767 113.633Z" fill="#C9FFAF"/>
<path d="M68.185 49.07C68.175 48.706 67.905 48.416 67.575 48.305C67.556 48.295 67.54 48.281 67.521 48.272C67.388 48.213 67.253 48.196 67.11 48.199C66.969 48.202 66.838 48.254 66.717 48.322C66.599 48.388 66.507 48.492 66.437 48.606C66.365 48.724 66.313 48.854 66.299 48.992C66.272 49.25 66.338 49.525 66.517 49.72C66.616 49.828 66.719 49.913 66.854 49.977C66.958 50.027 67.077 50.061 67.193 50.067C67.335 50.075 67.472 50.063 67.606 50.009C67.738 49.956 67.846 49.875 67.943 49.771C68.117 49.584 68.192 49.322 68.185 49.07Z" fill="#C9FFAF"/>
<path d="M69.54 47.922C69.552 47.843 69.543 47.766 69.515 47.691C69.497 47.657 69.478 47.623 69.46 47.589C69.412 47.523 69.35 47.472 69.275 47.439C69.219 47.411 69.16 47.4 69.099 47.404C69.04 47.398 68.983 47.407 68.927 47.43C68.87 47.45 68.821 47.482 68.782 47.526C68.734 47.564 68.698 47.612 68.675 47.67C68.664 47.709 68.652 47.748 68.641 47.787C68.629 47.866 68.638 47.943 68.666 48.018C68.684 48.052 68.703 48.086 68.721 48.12C68.769 48.187 68.831 48.237 68.906 48.27C68.962 48.298 69.021 48.309 69.082 48.305C69.141 48.311 69.198 48.302 69.254 48.279C69.311 48.259 69.36 48.228 69.399 48.183C69.447 48.145 69.483 48.097 69.506 48.039C69.518 48 69.529 47.961 69.54 47.922Z" fill="#C9FFAF"/>
<path d="M65.878 100.553C65.901 100.232 65.778 99.934 65.544 99.713C65.309 99.492 64.978 99.425 64.672 99.509C64.401 99.583 64.154 99.806 64.058 100.07C64.004 100.217 63.978 100.378 64.011 100.533C64.049 100.71 64.131 100.852 64.256 100.983C64.441 101.176 64.733 101.282 64.999 101.25C65.12 101.235 65.24 101.186 65.342 101.116C65.357 101.107 65.374 101.102 65.388 101.092C65.391 101.09 65.393 101.086 65.396 101.084L65.398 101.083C65.401 101.081 65.402 101.078 65.404 101.076C65.5 100.999 65.572 100.9 65.623 100.789C65.748 100.774 65.87 100.674 65.878 100.553Z" fill="#C9FFAF"/>
<path d="M64.928 100.413L64.929 100.412L64.917 100.416H64.921L64.928 100.413Z" fill="#C9FFAF"/>
<path d="M65.549 103.192C65.522 103.004 65.443 102.818 65.316 102.675C65.282 102.637 65.245 102.601 65.207 102.568C65.147 102.475 65.077 102.39 64.986 102.329C64.626 102.084 64.148 102.108 63.799 102.365C63.643 102.48 63.509 102.643 63.446 102.828C63.369 103.057 63.37 103.281 63.438 103.512C63.553 103.903 63.908 104.215 64.308 104.284C64.699 104.351 65.16 104.181 65.382 103.845C65.51 103.65 65.583 103.426 65.549 103.192Z" fill="#C9FFAF"/>
<path d="M66.359 104.776C66.135 104.708 65.897 104.764 65.792 104.994C65.705 105.185 65.788 105.493 66.01 105.561C66.234 105.629 66.472 105.573 66.577 105.343C66.664 105.152 66.581 104.844 66.359 104.776Z" fill="#C9FFAF"/>
<path d="M82.403 138.235C82.397 137.888 82.217 137.526 81.922 137.337C81.602 137.132 81.199 137.076 80.841 137.219C80.825 137.225 80.812 137.237 80.797 137.244C80.581 137.292 80.378 137.409 80.223 137.577C79.946 137.876 79.891 138.324 80.036 138.697C80.186 139.082 80.506 139.341 80.9 139.445C81.245 139.536 81.653 139.45 81.937 139.238C82.256 139 82.41 138.627 82.403 138.235Z" fill="#C9FFAF"/>
<path d="M79.214 136.734C79.265 136.671 79.296 136.601 79.309 136.521C79.32 136.445 79.312 136.371 79.285 136.299C79.266 136.244 79.235 136.197 79.193 136.159C79.157 136.113 79.11 136.078 79.054 136.056C78.982 136.024 78.906 136.012 78.828 136.021C78.672 136.038 78.542 136.138 78.476 136.278C78.452 136.329 78.437 136.384 78.428 136.439C78.416 136.508 78.428 136.574 78.45 136.637C78.458 136.681 78.467 136.729 78.485 136.77C78.514 136.834 78.545 136.888 78.6 136.934C78.654 136.979 78.713 137.001 78.781 137.014C78.817 137.021 78.856 137.021 78.892 137.017C78.917 137.011 78.941 137.005 78.966 136.999C79.003 136.986 79.035 136.965 79.061 136.937C79.083 136.921 79.099 136.901 79.11 136.877C79.111 136.875 79.111 136.873 79.112 136.871C79.118 136.864 79.125 136.85 79.132 136.838C79.132 136.839 79.132 136.84 79.131 136.841C79.132 136.838 79.133 136.836 79.134 136.833C79.139 136.825 79.143 136.82 79.149 136.806C79.154 136.795 79.154 136.788 79.157 136.778C79.161 136.775 79.165 136.771 79.168 136.768C79.164 136.772 79.161 136.775 79.157 136.778C79.157 136.777 79.158 136.776 79.158 136.774C79.175 136.76 79.199 136.753 79.214 136.734Z" fill="#C9FFAF"/>
<path d="M80.074 140.991C80.079 140.958 80.078 140.926 80.076 140.893C80.076 140.893 80.077 140.891 80.077 140.889C80.077 140.886 80.076 140.884 80.076 140.881C80.076 140.876 80.075 140.872 80.075 140.868V140.864C80.076 140.822 80.072 140.78 80.061 140.739C80.057 140.721 80.062 140.701 80.055 140.683C80.039 140.641 80.006 140.611 79.978 140.577C79.984 140.58 79.989 140.584 79.994 140.587L79.993 140.585C79.982 140.57 79.967 140.558 79.955 140.544C79.946 140.535 79.943 140.522 79.933 140.514C79.928 140.51 79.922 140.508 79.917 140.504C79.885 140.477 79.849 140.453 79.809 140.435C79.753 140.407 79.694 140.396 79.634 140.4C79.575 140.394 79.518 140.403 79.463 140.426C79.389 140.455 79.326 140.5 79.275 140.561C79.25 140.597 79.226 140.634 79.206 140.673C79.204 140.676 79.203 140.68 79.202 140.684C79.205 140.673 79.175 140.765 79.167 140.805C79.167 140.807 79.166 140.81 79.166 140.81C79.164 140.83 79.165 140.861 79.165 140.874C79.165 140.884 79.162 140.917 79.164 140.938C79.164 140.94 79.164 140.941 79.165 140.943C79.172 140.982 79.182 141.021 79.194 141.06C79.194 141.062 79.195 141.063 79.196 141.065C79.212 141.102 79.232 141.137 79.253 141.171L79.256 141.175C79.28 141.207 79.311 141.236 79.339 141.264L79.343 141.268L79.346 141.27C79.38 141.291 79.414 141.312 79.449 141.333C79.487 141.35 79.526 141.361 79.566 141.367C79.644 141.379 79.72 141.37 79.794 141.342C79.868 141.313 79.93 141.269 79.98 141.208C80.029 141.145 80.061 141.073 80.074 140.991Z" fill="#C9FFAF"/>
<path d="M82.83 140.775C82.833 140.744 82.829 140.714 82.816 140.684C82.806 140.666 82.796 140.648 82.787 140.63C82.762 140.595 82.729 140.569 82.69 140.551C82.682 140.546 82.674 140.542 82.666 140.537C82.662 140.535 82.659 140.533 82.655 140.53C82.653 140.529 82.651 140.527 82.649 140.526C82.628 140.514 82.603 140.511 82.579 140.505C82.546 140.499 82.513 140.501 82.482 140.511C82.45 140.516 82.42 140.529 82.394 140.549C82.378 140.564 82.362 140.579 82.346 140.594C82.323 140.62 82.308 140.651 82.301 140.684C82.292 140.705 82.289 140.727 82.291 140.749C82.288 140.782 82.292 140.814 82.306 140.845C82.316 140.864 82.326 140.883 82.337 140.902C82.364 140.939 82.398 140.967 82.439 140.985C82.462 140.993 82.485 141.003 82.509 141.005C82.512 141.005 82.514 141.005 82.516 141.005L82.529 141.006C82.538 141.006 82.547 141.007 82.556 141.007C82.588 141.013 82.618 141.011 82.648 141.001C82.679 140.996 82.707 140.984 82.732 140.965C82.747 140.951 82.762 140.937 82.778 140.922C82.8 140.897 82.814 140.868 82.821 140.836C82.83 140.818 82.833 140.797 82.83 140.775Z" fill="#C9FFAF"/>
</svg>
