<svg width="118" height="62" viewBox="0 0 118 62" fill="none" xmlns="http://www.w3.org/2000/svg">
<path d="M1.14799 48.025C1.21799 48.522 1.818 48.549 2.05 48.166C4.723 43.734 6.377 38.699 6.888 33.548C8.055 36.154 9.847 38.511 11.877 40.48C12.96 41.531 14.134 42.47 15.366 43.321C14.901 45.822 15.122 48.493 15.668 50.957C16.256 53.61 17.293 56.152 18.753 58.445C19.123 59.026 19.521 59.591 19.945 60.134C20.329 60.627 20.748 61.199 21.369 61.401C22.789 61.863 23.075 60.144 23.168 59.162C23.419 56.534 23.1 53.869 22.279 51.363C21.592 49.265 20.546 47.303 19.199 45.566C21.471 46.693 23.871 47.574 26.323 48.22C27.864 48.626 29.432 48.928 31.014 49.143C31.07 49.159 31.126 49.165 31.184 49.163C35.434 49.721 39.779 49.598 43.974 48.754C43.986 48.751 43.998 48.748 44.011 48.746C43.979 48.785 43.952 48.829 43.941 48.885C43.938 48.899 43.937 48.914 43.934 48.928C43.903 48.933 43.873 48.941 43.842 48.947C43.774 48.85 43.62 48.804 43.514 48.917C43.469 48.965 43.428 49.016 43.384 49.064C42.596 49.311 41.831 49.758 41.141 50.157C40.198 50.703 39.315 51.345 38.5 52.067C37.684 52.791 36.93 53.589 36.27 54.459C35.717 55.188 35.256 56.238 36.123 56.933C36.837 57.506 37.675 57.329 38.427 56.977C38.165 57.653 37.924 58.337 37.727 59.035C37.513 59.792 37.468 60.804 38.276 61.238C39.032 61.644 39.78 61.049 40.24 60.479C41.469 58.954 42.437 57.157 43.155 55.342C43.562 54.315 43.889 53.255 44.135 52.178C44.374 51.13 44.637 49.977 44.576 48.898C44.569 48.773 44.5 48.695 44.413 48.656C48.513 47.778 52.406 46.205 56.047 44.156C54.097 47.058 53.106 50.503 53.146 53.999C53.17 56.097 53.579 58.195 54.333 60.152C54.449 60.453 54.865 60.517 55.067 60.267C59.18 55.185 62.192 49.219 63.824 42.887C64.226 41.327 64.568 39.722 64.721 38.112C66.984 36.243 69.132 34.241 71.228 32.18C71.167 32.387 71.122 32.599 71.075 32.811C69.62 35.016 68.674 37.518 68.281 40.136C68.172 40.862 68.106 41.594 68.084 42.328C68.064 42.988 68.002 43.729 68.235 44.359C68.412 44.839 68.825 45.264 69.353 45.316C69.946 45.374 70.419 44.943 70.769 44.517C71.342 43.82 71.698 42.987 71.84 42.115C71.93 42.353 72.038 42.595 72.227 42.766C72.655 43.153 73.226 42.975 73.493 42.505C73.842 41.891 73.774 41.051 73.788 40.372C73.806 39.526 73.767 38.679 73.671 37.838C73.452 35.929 72.936 34.059 72.158 32.303C72.098 32.168 71.982 32.114 71.867 32.115C71.908 31.891 71.948 31.665 71.987 31.44C75.91 27.53 79.65 23.414 83.543 19.5C84.961 18.075 86.418 16.663 87.919 15.289C86.362 17.449 85.072 19.811 84.01 22.234C82.327 26.074 81.228 30.183 80.804 34.355C80.698 35.395 80.636 36.438 80.613 37.483C80.591 38.487 80.586 39.607 81.248 40.434C81.344 40.554 81.455 40.661 81.572 40.76C81.578 40.825 81.577 40.891 81.586 40.955C81.615 41.186 81.911 41.227 82.029 41.067C82.51 41.306 83.066 41.358 83.59 41.114C84.426 40.725 84.891 39.851 85.341 39.095C87.555 35.379 89.205 31.345 90.225 27.141C91.373 22.414 91.715 17.495 91.237 12.654C91.229 12.57 91.205 12.499 91.17 12.44C92.426 11.393 93.714 10.387 95.034 9.42901C95.104 9.45001 95.176 9.46401 95.246 9.48401C95.271 9.54801 95.316 9.60101 95.41 9.60501C95.51 9.60901 95.611 9.60501 95.712 9.60501C96.943 9.91201 98.227 10.074 99.47 10.224C101.13 10.425 102.797 10.557 104.468 10.608C106.124 10.658 107.782 10.646 109.437 10.563C111.087 10.48 112.769 10.377 114.4 10.102C115.407 9.93201 116.704 9.49001 116.984 8.37401C117.277 7.20701 116.304 6.41001 115.298 6.10301C114.714 5.92501 114.124 5.88001 113.518 5.84801C112.71 5.80601 111.901 5.78401 111.092 5.78101C109.448 5.77501 107.803 5.85401 106.167 6.01701C103.266 6.30501 100.395 6.86501 97.593 7.66701C101.785 4.94101 106.305 2.78301 111.236 1.61201C112.519 1.30701 113.819 1.05001 115.12 0.837013C115.494 0.776013 115.426 0.247012 115.054 0.258012C109.726 0.403012 104.555 2.36801 99.94 4.93101C95.144 7.59501 90.824 11.028 86.798 14.736C84.245 17.087 81.811 19.562 79.404 22.064C80.386 20.052 81.142 17.919 81.731 15.78C82.2 14.076 82.551 12.34 82.777 10.587C83.001 8.85601 83.184 7.04601 83.058 5.30101C82.947 3.76201 82.348 2.15501 80.913 1.39301C79.464 0.623012 77.748 1.29101 76.71 2.42501C75.578 3.66201 75.024 5.43601 74.67 7.04001C74.285 8.78201 74.197 10.588 74.309 12.366C74.567 16.477 75.935 20.406 77.304 24.257C74.372 27.327 71.439 30.394 68.344 33.293C69.921 29.67 70.418 25.537 69.902 21.652C69.764 20.609 69.655 19.372 69.139 18.437C68.742 17.717 67.829 17.122 67.14 17.883C66.885 18.164 66.78 18.542 66.714 18.911C66.637 18.829 66.547 18.758 66.446 18.7C65.987 18.436 65.436 18.533 65.024 18.841C63.972 19.628 64.174 21.194 64.22 22.342C64.328 25.064 64.683 27.78 65.622 30.35C65.878 31.05 66.184 31.732 66.533 32.391C66.739 32.78 66.962 33.263 67.239 33.676C67.265 33.754 67.281 33.837 67.31 33.914C67.344 34.005 67.402 34.064 67.469 34.105C66.152 35.312 64.807 36.488 63.414 37.616C63.063 37.9 62.705 38.176 62.349 38.453C61.358 38.969 60.42 39.618 59.571 40.306C59.226 40.585 58.894 40.88 58.57 41.183C55.805 43.015 52.88 44.597 49.773 45.79C45.577 47.402 41.108 48.228 36.622 48.266C37.352 48.012 38.072 47.724 38.774 47.403C40.313 46.699 41.792 45.837 43.188 44.881C45.992 42.958 48.483 40.568 50.506 37.835C51.643 36.298 52.635 34.653 53.462 32.929C53.578 32.687 53.415 32.294 53.114 32.286C45.282 32.095 38.484 36.902 34.053 43.04C32.937 44.587 31.949 46.223 31.052 47.906C26.04 47.22 21.026 45.585 16.793 42.83C13.271 40.538 10.072 37.367 8.233 33.536C8.269 33.556 8.30899 33.572 8.34599 33.591C8.38999 33.643 8.45199 33.676 8.53199 33.682C9.57599 34.215 10.748 34.579 11.847 34.841C13.419 35.216 15.031 35.391 16.646 35.393C19.868 35.397 23.125 34.639 26.008 33.2C27.639 32.386 29.157 31.363 30.499 30.13C30.787 29.865 30.701 29.477 30.361 29.341C30.332 29.252 30.252 29.175 30.143 29.181C30.053 29.185 29.964 29.197 29.875 29.205C24.17 27.684 18.017 27.992 12.473 30.015C10.919 30.582 9.252 31.242 7.908 32.219C7.821 32.282 7.77599 32.367 7.75999 32.456C7.59799 32.05 7.44599 31.639 7.31599 31.22C7.22299 30.92 7.143 30.619 7.072 30.318C7.081 29.605 7.08 28.885 6.932 28.188C6.907 28.071 6.835 27.983 6.746 27.923C6.594 24.394 7.9 20.956 10.345 18.242C13.509 14.729 17.98 12.499 22.278 10.701C23.356 10.25 24.431 9.74701 25.532 9.36001C25.986 9.20101 25.713 8.50501 25.259 8.66401C24.102 9.07001 22.919 9.39601 21.769 9.83001C20.604 10.27 19.451 10.748 18.319 11.268C16.098 12.288 13.95 13.501 12.028 15.018C8.851 17.525 6.43099 20.899 5.70799 24.839C4.03199 27.372 2.905 30.298 2.106 33.212C1.265 36.281 0.826995 39.453 0.794995 42.635C0.777995 44.435 0.897992 46.238 1.14799 48.025ZM37.076 56.705C36.456 56.63 36.056 56.129 36.305 55.517C36.524 54.98 36.972 54.506 37.347 54.072C37.708 53.653 38.09 53.252 38.492 52.872C39.306 52.104 40.201 51.422 41.148 50.827C41.583 50.554 42.032 50.305 42.491 50.075C40.974 51.9 39.709 53.943 38.768 56.123C38.264 56.426 37.685 56.779 37.076 56.705ZM43.586 51.497C43.425 52.357 43.21 53.207 42.938 54.039C42.401 55.686 41.665 57.275 40.736 58.738C40.513 59.089 40.279 59.433 40.034 59.769C39.796 60.095 39.542 60.469 39.181 60.669C38.676 60.949 38.244 60.62 38.163 60.089C38.089 59.608 38.298 59.082 38.442 58.633C38.671 57.913 38.937 57.206 39.23 56.509C39.258 56.472 39.274 56.433 39.277 56.392C39.628 55.567 40.019 54.76 40.453 53.977C41.307 52.437 42.313 50.98 43.444 49.63C43.585 49.566 43.719 49.49 43.855 49.418C43.761 50.108 43.714 50.809 43.586 51.497ZM114.14 9.23701C111.133 9.67501 108.054 9.80501 105.019 9.73501C103.293 9.69501 101.566 9.58901 99.848 9.41101C99.705 9.39601 99.562 9.37301 99.419 9.35501L100.69 9.26701C102.455 9.14501 104.221 9.02301 105.986 8.90101C109.37 8.66701 112.761 8.46401 116.139 8.15101C115.977 8.85501 114.715 9.15401 114.14 9.23701ZM113.384 6.72401C114.178 6.76501 115.737 6.77501 116.097 7.69101C116.1 7.70001 116.101 7.70701 116.104 7.71601C112.737 7.87201 109.372 8.13701 106.01 8.37201C104.273 8.49301 102.536 8.61501 100.799 8.73601C99.902 8.79901 99.006 8.86101 98.109 8.92401C97.669 8.95501 97.219 8.96801 96.77 8.99401C96.661 8.97901 96.553 8.96201 96.444 8.94701C101.897 7.20301 107.664 6.42601 113.384 6.72401ZM81.927 34.598C81.799 35.639 81.704 36.684 81.642 37.731C81.62 38.106 81.592 38.49 81.569 38.877C81.506 38.481 81.503 38.068 81.507 37.713C81.52 36.731 81.58 35.75 81.672 34.773C82.039 30.887 82.988 27.062 84.468 23.451C84.814 22.608 85.192 21.785 85.596 20.975C83.748 25.313 82.503 29.906 81.927 34.598ZM90.27 13.496C90.95 21.351 89.379 29.367 85.801 36.394C85.355 37.27 84.88 38.132 84.37 38.972C84.117 39.388 83.755 39.996 83.281 40.247C83.565 39.44 83.671 38.543 83.848 37.709C84.037 36.82 84.231 35.932 84.429 35.046C84.832 33.246 85.255 31.45 85.699 29.66C86.573 26.133 87.522 22.624 88.544 19.137C89.084 17.293 89.658 15.459 90.186 13.612C90.215 13.573 90.242 13.534 90.27 13.496ZM89.286 14.858C88.317 17.703 87.488 20.602 86.673 23.49C85.686 26.99 84.781 30.513 83.947 34.053C83.707 35.072 83.473 36.092 83.245 37.114C83.137 37.598 83.031 38.082 82.926 38.567C82.81 39.101 82.651 39.644 82.627 40.191C82.625 40.242 82.637 40.288 82.655 40.332C82.594 40.318 82.535 40.313 82.471 40.284C82.346 40.228 82.239 40.157 82.144 40.076C82.164 39.423 82.147 38.765 82.179 38.117C82.224 37.194 82.295 36.272 82.391 35.352C82.583 33.514 82.868 31.685 83.253 29.877C84.034 26.209 85.26 22.635 86.81 19.223C87.208 18.347 87.638 17.485 88.089 16.634C88.476 16.035 88.874 15.442 89.286 14.858ZM81.456 5.32901C81.516 4.94101 81.576 4.55301 81.636 4.16501C81.653 4.05401 81.676 3.93901 81.698 3.82301C81.888 4.29201 82.001 4.79801 82.046 5.26001C82.204 6.86501 82.042 8.53801 81.862 10.135C81.681 11.74 81.396 13.333 81.012 14.902C80.544 16.815 79.892 18.649 79.14 20.444C79.54 17.874 79.893 15.297 80.301 12.727C80.561 11.093 80.812 9.45801 81.064 7.82301C81.194 6.99001 81.328 6.16001 81.456 5.32901ZM79.632 2.13201C79.686 2.13501 79.735 2.12501 79.79 2.13101C80.397 2.20401 80.856 2.52501 81.202 2.96001C81.058 3.30001 81.051 3.70601 81.003 4.06601C80.952 4.45501 80.901 4.84501 80.85 5.23401C80.74 6.06801 80.636 6.90301 80.526 7.73801C80.311 9.37901 80.093 11.02 79.884 12.661C79.511 15.595 79.069 18.518 78.704 21.453C78.646 21.585 78.592 21.719 78.532 21.85C78.407 20.951 78.27 20.053 78.178 19.149C78.038 17.763 77.959 16.37 77.941 14.977C77.904 12.141 78.111 9.28301 78.622 6.49101C78.762 5.72701 78.92 4.96501 79.096 4.20801C79.26 3.51301 79.471 2.82601 79.632 2.13201ZM75.602 14.226C75.127 11.039 75.226 7.60901 76.571 4.63001C77.015 3.64701 77.79 2.56501 78.853 2.23001C78.512 3.40401 78.303 4.64801 78.105 5.84101C77.868 7.26901 77.682 8.70401 77.561 10.146C77.324 12.974 77.338 15.824 77.613 18.648C77.741 19.961 77.898 21.294 78.201 22.585C78.144 22.708 78.091 22.833 78.033 22.956C77.016 20.107 76.048 17.225 75.602 14.226ZM69.948 44.49C69.654 44.73 69.329 44.794 69.036 44.516C68.73 44.224 68.697 43.757 68.678 43.361C68.64 42.607 68.672 41.846 68.742 41.095C68.971 38.613 69.72 36.194 70.87 33.985C70.794 34.623 70.76 35.265 70.75 35.889C70.728 37.371 70.914 38.847 71.277 40.283C71.235 40.338 71.212 40.409 71.228 40.5C71.467 41.856 71.06 43.582 69.948 44.49ZM73.145 41.038C73.131 41.265 72.999 42.848 72.55 42.126C72.387 41.864 72.305 41.507 72.208 41.216C72.097 40.883 71.997 40.546 71.909 40.206C71.549 38.826 71.381 37.391 71.392 35.966C71.4 34.929 71.552 33.924 71.729 32.919C72.798 35.472 73.322 38.27 73.145 41.038ZM66.413 30.186C65.896 28.88 65.539 27.526 65.277 26.147C65.015 24.773 64.864 23.383 64.807 21.986C64.778 21.27 64.666 20.418 64.995 19.755C65.145 19.453 65.414 19.148 65.763 19.087C66.172 19.015 66.619 19.344 66.565 19.779C66.56 19.821 66.567 19.855 66.579 19.887C66.532 20.276 66.491 20.665 66.455 21.055C66.337 22.36 66.284 23.673 66.282 24.984C66.279 26.481 66.357 27.98 66.518 29.467C66.564 29.891 66.609 30.326 66.659 30.763C66.576 30.571 66.49 30.38 66.413 30.186ZM67.408 30.092C67.218 28.933 67.086 27.761 67.012 26.589C66.861 24.215 66.95 21.838 67.263 19.48C67.312 19.108 67.33 18.466 67.679 18.228C68.11 17.934 68.488 18.497 68.654 18.835C68.874 19.283 68.967 19.8 69.072 20.284C69.19 20.829 69.287 21.378 69.361 21.931C69.649 24.095 69.607 26.296 69.247 28.448C68.989 29.991 68.557 31.491 67.992 32.942C67.821 31.989 67.564 31.043 67.408 30.092ZM63.531 39.064C63.604 39.006 63.68 38.952 63.753 38.894C63.795 38.873 63.837 38.851 63.879 38.83C63.66 39.906 63.444 40.982 63.176 42.049C62.782 43.614 62.302 45.157 61.75 46.673C60.65 49.694 59.237 52.609 57.527 55.332C56.892 56.342 56.201 57.314 55.487 58.27C55.487 58.268 55.488 58.266 55.488 58.263C55.567 57.872 55.651 57.482 55.739 57.092C55.899 56.387 56.073 55.684 56.262 54.986C56.652 53.543 57.105 52.117 57.608 50.71C58.591 47.96 59.816 45.302 61.247 42.757C61.665 42.014 62.099 41.28 62.553 40.559C62.866 40.061 63.227 39.575 63.531 39.064ZM62.399 39.934C62.356 40.002 62.313 40.07 62.27 40.137C61.88 40.741 61.502 41.353 61.137 41.972C60.376 43.261 59.672 44.584 59.024 45.933C57.738 48.611 56.659 51.388 55.835 54.242C55.6 55.057 55.384 55.878 55.188 56.703C55.096 57.091 55.008 57.481 54.925 57.871C54.868 58.139 54.794 58.414 54.763 58.69C54.648 58.316 54.547 57.938 54.46 57.558C54.516 57.521 54.559 57.465 54.566 57.385C54.69 56.059 54.81 54.75 55.079 53.443C55.356 52.099 55.737 50.779 56.219 49.495C57.167 46.966 58.488 44.579 60.141 42.442C60.77 41.629 61.45 40.851 62.165 40.109C62.241 40.05 62.321 39.993 62.399 39.934ZM59.287 42.172C59.639 41.938 59.982 41.692 60.327 41.449C57.604 44.681 55.67 48.593 54.695 52.692C54.46 53.681 54.27 54.698 54.151 55.718C53.908 53.595 54.064 51.432 54.649 49.357C55.347 46.885 56.685 44.592 58.441 42.71C58.724 42.53 59.009 42.357 59.287 42.172ZM39.042 46.334C38.204 46.754 37.353 47.141 36.486 47.498C36.053 47.676 35.618 47.845 35.179 48.009C34.996 48.077 34.816 48.153 34.636 48.23C34.39 48.219 34.145 48.199 33.899 48.181C34.254 47.987 34.604 47.784 34.953 47.594C35.67 47.205 36.386 46.808 37.085 46.387C38.529 45.517 39.932 44.575 41.299 43.589C43.989 41.651 46.575 39.536 48.942 37.211C49.896 36.274 50.809 35.298 51.701 34.301C48.791 39.438 44.317 43.688 39.042 46.334ZM52.168 33.212C47.817 37.988 42.912 42.209 37.392 45.585C36.611 46.062 35.828 46.537 35.035 46.993C34.633 47.224 34.218 47.434 33.804 47.648C37.692 42.867 42.446 38.781 47.671 35.537C48.988 34.719 50.346 33.958 51.722 33.237C51.871 33.23 52.019 33.22 52.168 33.212ZM46.966 34.122C48.166 33.723 49.41 33.458 50.668 33.318C45.225 36.081 40.297 39.816 36.078 44.228C34.894 45.466 33.79 46.77 32.718 48.104C32.495 48.083 32.272 48.048 32.049 48.023C35.363 41.916 40.202 36.371 46.966 34.122ZM20.061 56.819C19.517 55.487 19.024 54.133 18.585 52.763C17.898 50.617 17.345 48.43 16.925 46.217C16.947 46.263 16.97 46.309 16.991 46.355C17.296 47.022 17.577 47.701 17.854 48.38C18.389 49.69 18.878 51.017 19.328 52.358C20.182 54.901 20.9 57.491 21.492 60.108C21.022 59.009 20.513 57.926 20.061 56.819ZM17.057 44.407C17.078 44.444 17.095 44.482 17.129 44.515C20.486 47.91 22.373 52.648 22.381 57.412C22.382 58.018 22.347 58.624 22.283 59.226C22.252 59.519 22.254 60.202 21.997 60.478C21.416 57.699 20.687 54.955 19.796 52.258C19.336 50.866 18.837 49.484 18.31 48.116C18.046 47.431 17.765 46.754 17.493 46.073C17.236 45.43 16.986 44.742 16.638 44.14C16.777 44.23 16.915 44.322 17.057 44.407ZM16.274 43.91C16.141 43.922 16.019 44.02 16.045 44.19C16.491 47.135 17.167 50.044 18.077 52.88C18.532 54.299 19.045 55.7 19.614 57.078C20.029 58.085 20.461 59.101 20.973 60.068C20.779 59.837 20.612 59.591 20.513 59.463C20.147 58.991 19.801 58.503 19.475 58.002C18.125 55.926 17.129 53.607 16.538 51.201C15.929 48.72 15.848 46.234 15.955 43.707C16.061 43.776 16.169 43.841 16.274 43.91ZM14.143 34.369C14.239 34.365 14.335 34.368 14.43 34.363C15.767 34.296 17.098 34.145 18.418 33.918C21.053 33.465 23.639 32.728 26.107 31.7C26.96 31.345 27.789 30.939 28.606 30.511C24.517 33.604 19.236 34.96 14.143 34.369ZM28.924 29.895C28.949 29.901 28.973 29.907 28.998 29.912C24.607 32.147 19.81 33.471 14.883 33.752C14.165 33.793 13.446 33.811 12.727 33.807C12.136 33.804 11.54 33.749 10.947 33.737C10.686 33.664 10.423 33.597 10.165 33.513C10.09 33.488 10.016 33.459 9.942 33.434C15.146 32.469 20.348 31.49 25.55 30.517C26.325 30.372 27.099 30.227 27.874 30.083C28.221 30.018 28.573 29.96 28.924 29.895ZM12.27 31.046C13.646 30.513 15.065 30.086 16.508 29.777C19.386 29.162 22.358 28.983 25.287 29.275C26.032 29.35 26.773 29.459 27.509 29.595C26.973 29.692 26.437 29.788 25.901 29.885C24.517 30.135 23.133 30.384 21.749 30.633C18.953 31.136 16.157 31.639 13.361 32.14C11.812 32.418 10.264 32.703 8.71499 32.985C8.60699 32.944 8.498 32.902 8.39 32.862C9.691 32.266 10.929 31.566 12.27 31.046ZM5.503 26.64C5.494 26.792 5.48399 26.944 5.48199 27.099C5.46399 28.523 5.675 29.912 6.056 31.253C6.053 31.541 6.048 31.829 6.031 32.116C5.951 33.46 5.792 34.8 5.557 36.126C5.093 38.737 4.327 41.288 3.274 43.723C3.045 44.253 2.79399 44.772 2.53399 45.286C2.59899 44.847 2.665 44.408 2.731 43.97C2.943 42.576 3.16999 41.185 3.39399 39.793C3.84699 36.981 4.305 34.17 4.752 31.358C5.003 29.784 5.253 28.212 5.503 26.64ZM4.207 29.579C4.391 29.095 4.589 28.618 4.794 28.144C3.963 33.168 3.156 38.197 2.293 43.216C2.159 43.994 2.02 44.772 1.884 45.549C1.877 45.591 1.869 45.632 1.862 45.674C1.436 40.212 2.255 34.712 4.207 29.579Z" fill="#C9FFAF"/>
</svg>
