<svg width="70" height="120" viewBox="0 0 70 120" fill="none" xmlns="http://www.w3.org/2000/svg">
<path d="M44.109 79.18C45.967 77.627 47.669 75.894 49.341 74.145C51.04 72.367 52.677 70.53 54.256 68.644C57.395 64.897 60.299 60.953 62.961 56.853C64.461 54.542 65.876 52.178 67.208 49.766C67.347 49.515 67.08 49.139 66.79 49.262C62.149 51.234 58.074 54.351 54.727 58.104C51.4 61.835 48.796 66.162 46.719 70.695C46.134 71.971 45.59 73.265 45.08 74.572C44.594 75.816 44.096 77.069 43.751 78.361C43.148 76.637 42.528 74.92 41.887 73.21C42.335 72.3 42.711 71.352 43.064 70.404C43.55 69.1 43.983 67.776 44.361 66.436C45.117 63.758 45.641 61.012 45.951 58.248C46.574 52.703 46.334 47.069 45.218 41.6C44.59 38.524 43.667 35.521 42.478 32.615C42.342 32.282 41.866 32.269 41.766 32.64C40.378 37.762 39.481 43.001 39.101 48.294C38.721 53.586 38.85 58.914 39.492 64.181C39.682 65.74 39.917 67.294 40.195 68.841C38.178 63.793 35.961 58.829 33.522 53.974C33.583 53.953 33.637 53.911 33.665 53.837C35.199 49.659 36.171 45.269 36.879 40.88C37.584 36.512 37.975 32.089 38.033 27.665C38.065 25.15 37.987 22.635 37.809 20.127C37.784 19.781 37.335 19.677 37.161 19.977C34.815 24.027 33.126 28.455 32.146 33.031C31.17 37.591 30.886 42.308 31.329 46.95C31.45 48.222 31.629 49.487 31.861 50.743C31.36 49.795 30.851 48.851 30.332 47.912C29.978 47.273 29.617 46.639 29.256 46.005C29.295 45.673 29.337 45.342 29.366 45.008C29.411 44.482 29.429 43.954 29.453 43.427C29.502 42.371 29.547 41.315 29.585 40.259C29.66 38.167 29.696 36.073 29.681 33.979C29.653 29.781 29.402 25.576 28.709 21.432C28.322 19.118 27.797 16.831 27.103 14.59C27.009 14.286 26.529 14.285 26.467 14.613C25.707 18.611 25.322 22.664 25.349 26.735C25.375 30.783 25.79 34.827 26.577 38.798C26.866 40.258 27.213 41.705 27.605 43.14C26.152 40.655 24.667 38.19 23.189 35.72C23.418 31.673 23.112 27.571 22.626 23.553C22.142 19.546 21.402 15.569 20.395 11.661C19.824 9.44301 19.165 7.24901 18.435 5.07901C18.316 4.72501 17.797 4.81501 17.794 5.18601C17.735 12.946 18.589 20.714 20.36 28.27C20.743 29.904 21.182 31.525 21.649 33.138C20.32 30.897 19.008 28.647 17.744 26.369C17.581 26.074 17.419 25.779 17.258 25.484C17.319 25.445 17.359 25.364 17.317 25.289C17.279 25.221 17.234 25.157 17.194 25.089C17.063 23.815 16.846 22.542 16.609 21.295C16.262 19.47 15.815 17.662 15.284 15.882C14.238 12.374 12.782 8.99201 11.002 5.79501C9.98001 3.95901 8.841 2.19101 7.595 0.49901C7.349 0.16501 6.79899 0.514009 7.04999 0.848009C7.11099 0.929009 7.16901 1.01301 7.23001 1.09401C8.67201 8.31201 11.432 15.15 14.682 21.73C14.674 21.721 14.667 21.712 14.659 21.703C13.683 20.554 12.659 19.446 11.592 18.381C9.45801 16.252 7.141 14.304 4.685 12.557C3.313 11.581 1.895 10.673 0.449004 9.81001C0.228004 9.67801 -0.0129898 9.96401 0.11801 10.17C3.45501 15.399 7.73201 20.035 12.618 23.852C13.984 24.919 15.403 25.978 16.908 26.843C16.944 26.864 16.981 26.869 17.018 26.868C17.105 26.957 17.271 26.938 17.305 26.806C19.361 30.636 21.54 34.399 23.722 38.16C23.509 37.936 23.296 37.712 23.083 37.49C22.056 36.421 20.965 35.397 19.852 34.418C17.601 32.437 15.215 30.612 12.71 28.963C11.273 28.017 9.79899 27.124 8.28799 26.302C7.99699 26.144 7.75598 26.482 7.88598 26.739C10.526 31.985 14.969 36.262 20.302 38.721C21.8 39.412 23.368 39.965 24.974 40.344C24.98 40.345 24.984 40.343 24.99 40.344C25.941 41.985 26.888 43.628 27.823 45.278C29.53 48.294 31.159 51.344 32.712 54.431C32.737 54.523 32.758 54.616 32.784 54.708C32.815 54.818 32.881 54.888 32.959 54.926C33.703 56.416 34.421 57.918 35.127 59.426C34.226 58.096 33.26 56.809 32.25 55.561C30.64 53.572 28.915 51.677 27.084 49.89C23.397 46.293 19.277 43.149 14.843 40.528C12.347 39.053 9.749 37.752 7.074 36.634C6.707 36.48 6.39401 36.905 6.67401 37.202C10.073 40.818 13.653 44.263 17.391 47.528C21.129 50.792 25.028 53.871 29.071 56.75C31.248 58.301 33.468 59.791 35.724 61.225C35.935 61.526 36.147 61.826 36.357 62.128C36.363 62.137 36.371 62.14 36.377 62.148C37.244 64.083 38.084 66.032 38.882 68.002C39.23 68.862 39.571 69.726 39.907 70.59C39.426 69.874 38.929 69.169 38.407 68.483C37.084 66.747 35.642 65.101 34.094 63.563C30.995 60.483 27.462 57.812 23.636 55.699C21.472 54.504 19.218 53.493 16.888 52.669C16.655 52.586 16.433 52.913 16.579 53.105C19.163 56.495 21.983 59.691 25.093 62.609C28.199 65.524 31.561 68.169 35.122 70.507C37.038 71.766 39.011 72.935 41.034 74.012C41.023 74.041 41.011 74.069 41.001 74.098C40.935 74.283 41.181 74.378 41.307 74.273C42.709 78.059 44.009 81.883 45.245 85.727C45.227 85.674 45.189 85.627 45.136 85.587C44.103 84.155 42.968 82.79 41.831 81.452C40.076 79.387 38.213 77.417 36.255 75.545C32.371 71.83 28.12 68.505 23.583 65.624C21.01 63.991 18.346 62.504 15.606 61.171C15.286 61.015 14.922 61.377 15.128 61.691C17.905 65.923 21.188 69.83 24.865 73.308C28.544 76.787 32.627 79.843 37.002 82.392C39.478 83.835 42.049 85.11 44.696 86.21C44.743 86.23 44.788 86.235 44.833 86.237C45.154 86.653 45.483 87.062 45.809 87.474C46.293 89.01 46.768 90.548 47.231 92.09C47.319 92.382 47.403 92.674 47.49 92.966C47.338 92.944 47.186 92.916 47.034 92.893C46.594 92.59 46.145 92.299 45.69 92.008C44.671 91.358 43.647 90.717 42.618 90.083C40.543 88.806 38.441 87.573 36.321 86.372C32.082 83.971 27.766 81.7 23.376 79.587C20.904 78.397 18.412 77.246 15.896 76.156C15.491 75.981 15.162 76.453 15.459 76.776C18.708 80.316 22.426 83.415 26.489 85.979C30.553 88.543 34.956 90.56 39.548 91.975C42.07 92.753 44.65 93.336 47.26 93.727C47.439 93.828 47.621 93.926 47.803 94.021C48.604 96.745 49.365 99.48 50.117 102.217C47.194 100.167 44.1 98.361 40.852 96.875C37.384 95.288 33.763 94.031 30.056 93.133C27.95 92.623 25.818 92.246 23.673 91.944C23.366 91.901 23.122 92.267 23.379 92.502C26.25 95.117 29.527 97.284 33.026 98.964C36.527 100.645 40.262 101.851 44.09 102.516C46.072 102.86 48.103 103.072 50.119 103.073C50.174 103.113 50.231 103.15 50.286 103.19C50.322 103.216 50.36 103.229 50.397 103.241C51.625 107.734 52.823 112.234 54.07 116.723C54.352 117.739 54.647 118.746 54.974 119.748C55.106 120.152 55.672 119.958 55.592 119.557C54.76 115.384 53.562 111.272 52.455 107.165C51.543 103.781 50.602 100.405 49.634 97.037C53.165 94.012 56.303 90.557 59.088 86.835C61.898 83.081 64.34 79.058 66.356 74.824C67.494 72.434 68.495 69.981 69.361 67.48C69.504 67.067 68.941 66.883 68.681 67.122C65.241 70.281 62.093 73.755 59.282 77.484C56.461 81.225 53.971 85.215 51.864 89.4C50.88 91.354 49.982 93.352 49.16 95.38C49.109 95.204 49.06 95.026 49.009 94.85C48.247 92.246 47.46 89.648 46.642 87.061C50.023 84.382 53.142 81.373 56.063 78.2C59.079 74.924 61.853 71.426 64.381 67.761C65.803 65.699 67.143 63.581 68.4 61.414C68.592 61.083 68.184 60.785 67.89 60.944C63.903 63.103 60.247 65.835 57.04 69.04C53.838 72.24 51.086 75.899 48.905 79.867C47.878 81.735 46.955 83.685 46.198 85.686C45.504 83.521 44.792 81.361 44.048 79.212C44.067 79.206 44.088 79.197 44.109 79.18Z" fill="#C9FFAF"/>
<path d="M16.922 25.115C16.747 24.842 16.508 24.647 16.267 24.432C15.987 24.182 15.707 23.931 15.426 23.682C14.88 23.198 14.333 22.715 13.787 22.231C12.695 21.264 11.602 20.292 10.484 19.355C8.24802 17.481 6.16102 15.431 3.94502 13.534C2.70202 12.47 1.54402 11.311 0.27702 10.272C0.21402 10.22 0.126023 10.305 0.187023 10.363C1.23602 11.381 2.37701 12.292 3.45601 13.275C4.53401 14.258 5.61801 15.233 6.70601 16.206C7.79401 17.179 8.89801 18.133 9.98201 19.111C11.064 20.088 12.121 21.093 13.205 22.068C13.797 22.6 14.388 23.132 14.98 23.664C15.276 23.93 15.573 24.195 15.87 24.46C16.173 24.73 16.458 25.036 16.825 25.216C16.885 25.245 16.964 25.18 16.922 25.115Z" fill="white"/>
<path d="M16.038 20.93C15.082 18.222 13.863 15.607 12.771 12.952C11.676 10.291 10.466 7.67902 9.41 5.00102C8.811 3.48002 8.23899 1.95002 7.59799 0.446021C7.56799 0.377021 7.45399 0.406022 7.48199 0.479022C8.52499 3.17702 9.80699 5.78802 10.754 8.52402C11.699 11.255 12.906 13.892 13.895 16.607C14.443 18.111 15.061 19.609 15.732 21.062C15.812 21.235 16.101 21.109 16.038 20.93Z" fill="white"/>
<path d="M23.863 39.163C23.372 38.784 22.815 38.481 22.291 38.147C21.739 37.795 21.192 37.436 20.649 37.07C19.564 36.337 18.505 35.569 17.453 34.789C15.326 33.211 13.308 31.487 11.38 29.671C10.312 28.665 9.266 27.633 8.248 26.576C8.187 26.512 8.09202 26.609 8.15202 26.673C11.692 30.507 15.698 33.942 19.986 36.915C20.589 37.333 21.199 37.742 21.814 38.143C22.438 38.548 23.069 39.006 23.745 39.317C23.839 39.359 23.957 39.235 23.863 39.163Z" fill="white"/>
<path d="M28.962 45.329C28.092 37.305 27.442 29.243 27.024 21.183C26.906 18.916 26.83 16.648 26.708 14.381C26.703 14.288 26.562 14.29 26.563 14.384C26.618 18.439 26.853 22.499 27.078 26.548C27.3 30.556 27.582 34.561 27.935 38.56C28.135 40.82 28.353 43.079 28.58 45.337C28.605 45.579 28.988 45.574 28.962 45.329Z" fill="white"/>
<path d="M36.68 27.544C36.921 25.13 37.178 22.715 37.315 20.293C37.325 20.108 37.053 20.123 37.033 20.298C36.554 24.51 36.208 28.737 35.728 32.949C35.245 37.19 34.729 41.427 34.141 45.654C33.813 48.016 33.434 50.369 33.066 52.725C33.044 52.866 33.259 52.923 33.283 52.78C34.682 44.412 35.837 35.987 36.68 27.544Z" fill="white"/>
<path d="M43.682 56.958C44.009 52.194 43.924 47.38 43.576 42.62C43.381 39.948 43.121 37.26 42.658 34.62C42.618 34.391 42.222 34.447 42.251 34.681C42.542 37.034 42.855 39.38 43.061 41.742C43.267 44.104 43.397 46.472 43.451 48.841C43.559 53.576 43.382 58.325 42.898 63.037C42.622 65.724 42.208 68.387 41.733 71.046C41.708 71.184 41.919 71.24 41.946 71.1C42.834 66.434 43.358 61.694 43.682 56.958Z" fill="white"/>
<path d="M33.799 58.696C33.351 57.79 32.614 57.03 31.937 56.288C31.223 55.505 30.47 54.758 29.695 54.036C28.149 52.598 26.507 51.268 24.832 49.985C23.121 48.674 21.367 47.426 19.631 46.151C17.695 44.729 15.757 43.31 13.819 41.891C11.633 40.29 9.49903 38.609 7.27303 37.063C7.19303 37.007 7.09102 37.139 7.16902 37.201C9.01002 38.652 10.929 40.009 12.816 41.397C14.735 42.808 16.631 44.253 18.54 45.678C22.013 48.27 25.565 50.816 28.777 53.731C29.633 54.508 30.463 55.315 31.253 56.16C31.661 56.596 32.06 57.039 32.446 57.495C32.834 57.953 33.196 58.415 33.643 58.819C33.73 58.895 33.849 58.797 33.799 58.696Z" fill="white"/>
<path d="M66.206 50.005C63.432 53.653 60.628 57.279 57.793 60.879C54.956 64.481 52.088 68.061 49.188 71.612C47.552 73.615 45.977 75.668 44.296 77.633C44.284 77.647 44.305 77.668 44.317 77.653C45.799 75.893 47.351 74.197 48.837 72.439C50.323 70.682 51.788 68.907 53.251 67.13C56.164 63.592 58.991 59.982 61.797 56.359C63.375 54.322 64.93 52.269 66.472 50.205C66.584 50.055 66.321 49.854 66.206 50.005Z" fill="white"/>
<path d="M41.13 72.758C40.815 72.363 40.426 72.04 40.052 71.702C39.647 71.336 39.243 70.971 38.835 70.608C38.082 69.939 37.322 69.279 36.559 68.621C35.003 67.278 33.412 65.97 31.825 64.663C28.682 62.076 25.462 59.585 22.225 57.116C21.35 56.449 20.467 55.793 19.58 55.142C18.636 54.448 17.7 53.73 16.711 53.101C16.633 53.051 16.537 53.173 16.612 53.232C18.191 54.489 19.873 55.629 21.493 56.833C23.17 58.079 24.83 59.343 26.462 60.647C29.64 63.186 32.766 65.787 35.813 68.482C36.661 69.232 37.513 69.978 38.356 70.735C38.793 71.127 39.232 71.518 39.668 71.911C40.084 72.285 40.481 72.686 40.95 72.994C41.105 73.094 41.227 72.879 41.13 72.758Z" fill="white"/>
<path d="M67.059 61.54C65.565 63.021 64.237 64.687 62.845 66.263C61.448 67.844 60.066 69.438 58.703 71.049C56.005 74.239 53.32 77.445 50.777 80.761C50.076 81.674 49.372 82.587 48.653 83.485C47.933 84.384 47.143 85.253 46.531 86.232C46.49 86.298 46.586 86.371 46.639 86.314C47.366 85.538 47.962 84.64 48.607 83.797C49.227 82.984 49.871 82.189 50.515 81.395C51.829 79.775 53.173 78.178 54.499 76.568C57.154 73.344 59.871 70.172 62.621 67.029C63.379 66.163 64.148 65.308 64.92 64.455C65.719 63.572 66.558 62.713 67.313 61.792C67.456 61.616 67.225 61.376 67.059 61.54Z" fill="white"/>
<path d="M44.254 85.097C43.462 84.182 42.465 83.411 41.56 82.609C40.66 81.812 39.756 81.019 38.848 80.231C37.032 78.655 35.203 77.094 33.357 75.554C29.633 72.447 25.844 69.413 22 66.456C20.955 65.652 19.905 64.854 18.852 64.062C17.76 63.241 16.68 62.388 15.536 61.64C15.458 61.589 15.364 61.711 15.437 61.771C16.353 62.529 17.328 63.217 18.276 63.933C19.26 64.676 20.24 65.425 21.215 66.179C23.117 67.648 25.004 69.136 26.875 70.644C30.65 73.685 34.358 76.813 37.996 80.017C39.008 80.909 40.016 81.806 41.018 82.71C42.007 83.602 42.957 84.605 44.039 85.382C44.214 85.509 44.379 85.242 44.254 85.097Z" fill="white"/>
<path d="M68.203 68.434C66.05 72.234 63.779 75.973 61.38 79.623C58.993 83.255 56.486 86.815 53.864 90.281C53.11 91.277 52.345 92.264 51.577 93.249C50.833 94.204 50.052 95.133 49.355 96.123C49.299 96.203 49.424 96.293 49.489 96.225C50.245 95.432 50.921 94.565 51.608 93.713C52.296 92.859 52.973 91.995 53.642 91.125C54.953 89.422 56.222 87.69 57.494 85.958C60.09 82.424 62.504 78.736 64.822 75.014C66.124 72.922 67.378 70.799 68.597 68.657C68.739 68.405 68.346 68.18 68.203 68.434Z" fill="white"/>
<path d="M46.823 92.49C44.681 91.674 42.53 90.892 40.42 89.991C38.335 89.101 36.273 88.158 34.237 87.164C30.145 85.166 26.155 82.961 22.288 80.557C21.213 79.889 20.147 79.205 19.092 78.506C18.564 78.157 18.041 77.801 17.516 77.448C16.976 77.086 16.451 76.685 15.876 76.382C15.797 76.341 15.709 76.446 15.779 76.51C16.587 77.254 17.579 77.841 18.49 78.451C19.44 79.088 20.398 79.712 21.364 80.324C23.313 81.559 25.294 82.743 27.305 83.876C31.29 86.12 35.391 88.159 39.586 89.981C41.937 91.002 44.307 92.024 46.724 92.88C46.969 92.967 47.061 92.58 46.823 92.49Z" fill="white"/>
<path d="M49.886 101.563C48.981 101.221 48.036 100.97 47.112 100.683C46.207 100.402 45.303 100.118 44.396 99.841C42.562 99.282 40.729 98.719 38.898 98.151C35.484 97.093 32.005 96.14 28.698 94.771C26.894 94.024 25.192 93.108 23.544 92.063C23.449 92.002 23.331 92.152 23.422 92.224C26.119 94.353 29.506 95.547 32.736 96.603C36.324 97.775 39.941 98.859 43.536 100.009C44.565 100.338 45.596 100.66 46.627 100.983C47.675 101.311 48.721 101.689 49.787 101.954C50.044 102.017 50.123 101.653 49.886 101.563Z" fill="white"/>
</svg>
