<svg width="57" height="137" viewBox="0 0 57 137" fill="none" xmlns="http://www.w3.org/2000/svg">
<path d="M54.472 38.543C52.948 36.497 50.744 35.056 48.241 34.466C45.686 33.864 42.995 34.239 40.716 35.526C38.413 36.827 36.578 38.834 35.207 41.053C32.168 45.971 31.395 51.874 31.01 57.514C30.958 58.282 30.912 59.048 30.89 59.818C30.889 59.861 30.903 59.895 30.924 59.922C30.395 60.584 29.86 61.242 29.338 61.909C30.525 53.784 31.421 45.608 31.688 37.399C31.697 37.11 31.704 36.821 31.712 36.533C36.588 32.851 41.715 28.569 43.038 22.343C43.356 20.846 43.415 19.293 43.152 17.783C42.884 16.246 42.322 14.769 41.619 13.376C40.303 10.77 38.616 8.28903 36.6 6.16003C32.996 2.35103 25.96 -2.17197 21.409 2.80403C19.318 5.09003 18.73 8.46002 18.552 11.43C18.361 14.612 18.774 17.81 19.585 20.889C20.4 23.986 21.588 26.998 23.051 29.853C24.407 32.501 26.209 35.071 28.978 36.42C29.579 36.713 30.214 36.924 30.868 37.066C30.646 44.199 29.945 51.312 28.996 58.385C27.953 57.166 26.905 55.952 25.853 54.741C26.946 52.079 27.576 49.247 27.51 46.363C27.449 43.711 26.748 41.037 25.301 38.786C23.85 36.529 21.623 34.8 19.254 33.554C16.876 32.302 14.194 31.543 11.487 31.573C9.075 31.6 6.73501 32.295 4.74701 33.651C2.90201 34.91 1.392 36.732 0.709996 38.857C-0.0350041 41.178 0.26599 43.69 1.29099 45.881C2.36599 48.18 4.16601 50.06 6.33301 51.396C11.289 54.452 17.284 54.638 22.951 54.741C23.717 54.755 24.483 54.769 25.249 54.789C25.256 54.789 25.262 54.786 25.269 54.785C26.489 56.207 27.7 57.635 28.905 59.069C28.873 59.301 28.844 59.533 28.812 59.764C27.762 67.34 26.431 74.872 25.082 82.401C24.36 81.434 23.632 80.471 22.906 79.507C24.397 74.891 25.587 69.452 23.314 64.886C21.317 60.875 16.987 58.813 12.843 57.6C10.423 56.892 7.82 56.363 5.344 57.119C3.191 57.777 1.53201 59.368 1.07801 61.577C0.609007 63.858 1.26901 66.358 2.09601 68.487C2.94801 70.678 4.26901 72.655 6.08201 74.185C9.961 77.46 15.168 78.402 20.091 78.939C20.702 79.006 21.313 79.067 21.925 79.129C22.934 80.471 23.943 81.815 24.945 83.162C24.834 83.78 24.723 84.398 24.613 85.016C23.37 91.952 22.102 98.886 20.643 105.781C19.967 104.786 19.209 103.837 18.545 102.833C18.115 102.184 17.703 101.524 17.303 100.857C17.346 100.849 17.386 100.827 17.405 100.771C17.971 99.11 18.358 97.443 18.453 95.689C18.548 93.953 18.42 92.19 18.03 90.493C17.344 87.507 15.927 84.059 12.919 82.698C11.559 82.083 9.902 81.945 8.53 82.602C7.214 83.232 6.33302 84.48 5.89402 85.828C4.90202 88.878 5.89601 92.228 7.68201 94.792C9.77401 97.794 13.226 99.665 16.697 100.69C17.071 101.31 17.456 101.923 17.855 102.528C18.293 103.194 18.747 103.851 19.216 104.497C19.64 105.081 20.064 105.679 20.549 106.218C20.312 107.333 20.082 108.45 19.833 109.563C18.002 117.74 15.871 125.842 13.11 133.766C12.764 134.76 12.412 135.751 12.049 136.739C11.983 136.919 12.257 137.032 12.329 136.853C15.434 129.097 17.787 121.058 19.767 112.957C20.606 109.522 21.365 106.068 22.078 102.605C22.514 102.491 22.948 102.363 23.379 102.228C23.396 102.249 23.42 102.264 23.453 102.266C28.286 102.541 33.257 103.073 38 101.796C40.034 101.249 41.998 100.381 43.641 99.062C45.198 97.812 46.42 96.144 47.07 94.265C47.703 92.438 47.782 90.424 47.077 88.604C46.32 86.651 44.737 85.215 42.653 84.772C40.614 84.338 38.4 84.722 36.488 85.48C34.586 86.234 32.864 87.413 31.397 88.816C28.127 91.941 26.195 96.101 24.5 100.198C24.312 100.652 24.127 101.108 23.941 101.563C23.348 101.784 22.754 102.001 22.159 102.217C23.105 97.6 23.97 92.967 24.82 88.335C25.291 85.769 25.759 83.203 26.222 80.636C26.576 80.509 26.929 80.376 27.28 80.238C27.279 80.297 27.306 80.355 27.369 80.381C29.762 81.356 32.33 82.059 34.885 82.474C37.169 82.845 39.514 82.922 41.79 82.458C43.8 82.048 45.758 81.248 47.361 79.967C49.023 78.638 50.161 76.831 50.782 74.822C51.429 72.73 51.591 70.539 51.565 68.363C51.552 67.264 51.582 66.066 51.09 65.052C50.652 64.149 49.811 63.517 48.853 63.218C47.727 62.866 46.537 62.96 45.406 63.241C44.249 63.529 43.117 63.947 42.014 64.393C39.845 65.269 37.763 66.373 35.862 67.728C32.256 70.299 29.293 73.867 27.873 78.06C27.7 78.572 27.552 79.092 27.424 79.616C27.419 79.635 27.424 79.65 27.422 79.667C27.048 79.84 26.675 80.011 26.302 80.186C27.335 74.451 28.33 68.708 29.19 62.946C29.211 62.803 29.231 62.66 29.252 62.517C29.661 62.046 30.064 61.571 30.468 61.096C30.507 61.154 30.568 61.195 30.647 61.214C30.735 61.236 30.831 61.239 30.921 61.249C30.951 61.252 30.982 61.256 31.012 61.259C31.055 61.333 31.124 61.388 31.228 61.391C34.284 61.456 37.37 61.088 40.351 60.433C43.101 59.829 45.846 58.989 48.361 57.722C50.689 56.549 52.851 54.96 54.37 52.837C55.9 50.699 56.794 48.094 56.788 45.47C56.782 42.989 55.963 40.544 54.472 38.543Z" fill="#C9FFAF"/>
<path d="M56.14 45.492C53.984 46.124 51.874 46.933 49.739 47.633L46.531 48.686C46.021 48.853 45.51 49.02 45 49.188C44.772 49.264 44.535 49.334 44.302 49.412C46.001 47.708 47.641 45.945 49.198 44.113C49.941 43.238 50.667 42.35 51.376 41.448C52.082 40.55 52.818 39.655 53.468 38.717C53.611 38.51 53.307 38.278 53.153 38.48C52.537 39.286 51.965 40.123 51.34 40.924C50.73 41.707 50.107 42.48 49.471 43.243C48.185 44.786 46.848 46.287 45.463 47.743C44.183 49.088 42.857 50.39 41.497 51.656C41.287 51.139 41.181 50.536 41.04 50.013C40.885 49.438 40.74 48.861 40.594 48.284C40.296 47.106 40.014 45.924 39.743 44.74C39.2 42.372 38.676 39.996 38.167 37.621C38.156 37.57 38.077 37.581 38.086 37.633C38.477 40.057 38.936 42.457 39.468 44.855C39.73 46.04 40.003 47.223 40.282 48.404C40.418 48.982 40.561 49.56 40.698 50.138C40.841 50.741 41.088 51.398 41.118 52.015C39.664 53.353 38.167 54.647 36.63 55.891C35.77 56.587 34.897 57.268 34.012 57.932C33.103 58.615 32.089 59.242 31.278 60.038C31.237 60.078 31.272 60.16 31.334 60.131C32.216 59.72 33.012 59.082 33.791 58.509C34.611 57.906 35.419 57.285 36.217 56.654C36.483 56.444 36.74 56.224 37.003 56.011C37.674 56.011 38.356 55.893 39.019 55.811C39.765 55.718 40.509 55.606 41.251 55.493C42.687 55.275 44.122 55.036 45.552 54.783C48.463 54.268 51.356 53.658 54.227 52.958C54.427 52.909 54.382 52.593 54.18 52.642C51.334 53.339 48.466 53.948 45.58 54.462C44.149 54.717 42.714 54.942 41.274 55.14C40.554 55.239 39.833 55.328 39.112 55.421C38.576 55.49 38.021 55.532 37.481 55.62C38.634 54.674 39.771 53.711 40.875 52.71C41.055 52.547 41.228 52.377 41.406 52.212C41.513 52.191 41.608 52.12 41.617 52.014C42.376 51.31 43.121 50.591 43.856 49.863C44.263 49.779 44.663 49.626 45.053 49.501C45.589 49.33 46.124 49.154 46.66 48.981C47.731 48.634 48.802 48.287 49.873 47.94C52.013 47.247 54.199 46.656 56.316 45.894C56.59 45.796 56.408 45.414 56.14 45.492Z" fill="white"/>
<path d="M26.038 54.2901C23.285 50.6791 20.196 47.3171 16.855 44.2201C16.918 44.2091 16.974 44.1701 16.999 44.0871C17.119 43.6861 17.147 43.2451 17.215 42.8311C17.288 42.3811 17.361 41.9321 17.434 41.4821C17.583 40.5581 17.728 39.6331 17.882 38.7091C18.031 37.8101 18.185 36.9121 18.337 36.0141C18.413 35.5651 18.486 35.1151 18.559 34.6661C18.61 34.3501 18.778 33.9351 18.585 33.6521C18.575 33.6371 18.551 33.6361 18.537 33.6461C18.278 33.8371 18.29 34.2581 18.237 34.5501C18.156 34.9991 18.075 35.4471 17.998 35.8961C17.842 36.7941 17.688 37.6921 17.531 38.5901C17.378 39.4631 17.216 40.3351 17.058 41.2071C16.977 41.6561 16.896 42.1041 16.815 42.5531C16.734 43.0071 16.594 43.4901 16.568 43.9491C14.803 42.3281 12.966 40.7831 11.071 39.3161C11.071 39.3121 11.073 39.3081 11.072 39.3041C11.034 38.7081 10.832 38.0941 10.716 37.5071C10.597 36.9091 10.504 36.3051 10.41 35.7021C10.222 34.5001 10.122 33.2721 9.85801 32.0841C9.84001 32.0041 9.70002 31.9921 9.70002 32.0861C9.69902 33.3091 9.911 34.5401 10.081 35.7501C10.166 36.3541 10.264 36.9561 10.348 37.5611C10.409 37.9981 10.444 38.4601 10.527 38.9041C10.211 38.6631 9.89801 38.4191 9.57801 38.1831C8.70801 37.5411 7.82602 36.9151 6.93202 36.3061C6.06202 35.7141 5.17901 35.0331 4.21601 34.5971C4.11501 34.5511 4.045 34.6911 4.123 34.7571C4.858 35.3771 5.731 35.8571 6.525 36.4001C7.309 36.9351 8.083 37.4841 8.848 38.0451C9.457 38.4921 10.054 38.9531 10.65 39.4161C10.651 39.4181 10.651 39.4211 10.651 39.4211C10.682 39.5171 10.753 39.5551 10.829 39.5521C11.687 40.2221 12.535 40.9051 13.366 41.6091C13.662 41.8601 13.948 42.1211 14.24 42.3751C12.231 42.9991 10.222 43.6221 8.20701 44.2291C7.17901 44.5381 6.15201 44.8471 5.12501 45.1591C4.58701 45.3221 4.049 45.4851 3.512 45.6481C2.985 45.8081 2.408 45.9281 1.916 46.1771C1.808 46.2321 1.84902 46.3961 1.97502 46.3811C2.48802 46.3231 2.99801 46.1241 3.49101 45.9791C4.03101 45.8201 4.57002 45.6601 5.10902 45.5011C6.16302 45.1901 7.217 44.8761 8.27 44.5631C10.385 43.9341 12.504 43.3231 14.624 42.7121C16.502 44.3671 18.31 46.1001 20.036 47.9091C19.215 48.2261 18.417 48.6641 17.621 49.0331C16.761 49.4311 15.901 49.8291 15.041 50.2271C13.32 51.0231 11.588 51.8001 9.9 52.6601C9.758 52.7321 9.848 52.9501 9.999 52.8871C11.751 52.1631 13.465 51.3511 15.187 50.5611C16.025 50.1761 16.863 49.7921 17.701 49.4071C18.562 49.0121 19.488 48.6691 20.314 48.2071C20.74 48.6581 21.165 49.1091 21.58 49.5691C23.024 51.1711 24.396 52.8331 25.721 54.5321C25.88 54.7351 26.193 54.4931 26.038 54.2901Z" fill="white"/>
<path d="M42.495 20.401C42.234 20.532 42.047 20.758 41.847 20.967C41.6 21.225 41.355 21.484 41.108 21.743C40.616 22.26 40.126 22.779 39.637 23.299L36.811 26.308C35.069 28.163 33.308 30.002 31.584 31.873C31.642 30.999 31.687 30.124 31.709 29.249C31.766 26.97 31.704 24.687 31.523 22.413C31.462 21.644 31.38 20.876 31.29 20.11C31.317 20.095 31.344 20.076 31.368 20.048C31.991 19.315 32.566 18.531 33.171 17.782C33.794 17.011 34.416 16.24 35.039 15.469C36.266 13.95 37.554 12.461 38.681 10.868C38.777 10.733 38.588 10.597 38.477 10.715C37.141 12.144 35.942 13.706 34.7 15.215C34.086 15.961 33.472 16.707 32.859 17.453C32.315 18.114 31.745 18.763 31.206 19.43C30.744 15.858 29.974 12.321 28.915 8.87904C28.145 6.37504 27.275 3.86804 26.108 1.51504C26.053 1.40504 25.887 1.47504 25.931 1.59004C26.755 3.74804 27.604 5.89204 28.282 8.10104C28.567 9.03004 28.827 9.96705 29.07 10.908C28.885 10.78 28.69 10.66 28.513 10.529C28.174 10.277 27.84 10.018 27.505 9.76004C26.815 9.23004 26.128 8.69704 25.444 8.16104C24.095 7.10404 22.775 6.01104 21.404 4.98004C21.316 4.91404 21.223 5.04104 21.301 5.11204C22.573 6.26204 23.918 7.32905 25.253 8.40605C25.911 8.93605 26.571 9.46405 27.233 9.98805C27.564 10.25 27.898 10.509 28.228 10.773C28.551 11.031 28.841 11.356 29.202 11.554C29.214 11.561 29.226 11.561 29.237 11.565C29.499 12.623 29.737 13.686 29.947 14.754C30.577 17.957 30.971 21.212 31.126 24.476C30.326 23.92 29.474 23.418 28.648 22.909C27.639 22.288 26.624 21.677 25.596 21.087C24.617 20.525 23.627 19.98 22.629 19.452C22.116 19.181 21.6 18.915 21.083 18.652C20.555 18.385 20.002 18.072 19.426 17.922C19.324 17.895 19.233 18.016 19.328 18.09C19.751 18.416 20.272 18.649 20.746 18.894C21.262 19.161 21.777 19.428 22.289 19.702C23.34 20.264 24.381 20.844 25.412 21.442C26.415 22.024 27.41 22.621 28.39 23.241C29.32 23.83 30.218 24.477 31.155 25.053C31.198 26.176 31.214 27.301 31.199 28.424C31.182 29.714 31.127 31.003 31.032 32.289C31.027 32.361 31.019 32.433 31.013 32.505C30.995 32.547 30.992 32.587 31.003 32.625C30.961 33.156 30.918 33.686 30.864 34.216C30.802 34.824 30.659 35.447 30.758 36.054C30.782 36.204 30.992 36.227 31.054 36.09C31.281 35.585 31.298 35.03 31.358 34.485C31.421 33.913 31.477 33.3391 31.523 32.7651C31.527 32.7161 31.529 32.668 31.533 32.619C33.43 30.656 35.279 28.644 37.151 26.657L39.982 23.651C40.454 23.15 40.925 22.649 41.393 22.145C41.636 21.884 41.878 21.622 42.121 21.361C42.337 21.128 42.589 20.906 42.713 20.612C42.768 20.489 42.627 20.335 42.495 20.401Z" fill="white"/>
<path d="M51.231 67.245C47.477 69.393 43.691 71.487 39.88 73.536C40.273 72.194 40.732 70.87 41.091 69.518C41.293 68.76 41.478 67.998 41.646 67.232C41.819 66.44 42.029 65.611 42.082 64.802C42.094 64.624 41.807 64.523 41.753 64.717C41.55 65.451 41.448 66.224 41.29 66.97C41.124 67.752 40.942 68.53 40.741 69.304C40.341 70.845 39.914 72.419 39.251 73.874C37.144 75.003 35.031 76.122 32.907 77.22C31.172 78.116 29.433 79.002 27.695 79.892C27.523 79.98 27.639 80.254 27.815 80.167C30.437 78.884 33.038 77.556 35.624 76.201C36.133 76.394 36.761 76.391 37.299 76.453C37.882 76.519 38.464 76.583 39.048 76.639C40.241 76.752 41.436 76.849 42.631 76.93C44.979 77.089 47.357 77.249 49.712 77.215C49.915 77.212 49.911 76.871 49.708 76.861C47.338 76.749 44.97 76.715 42.602 76.549C41.432 76.467 40.263 76.37 39.096 76.257C38.512 76.201 37.929 76.145 37.345 76.084C36.958 76.044 36.538 75.959 36.131 75.937C37.196 75.377 38.258 74.814 39.318 74.246C39.451 74.332 39.654 74.327 39.704 74.145C39.715 74.103 39.729 74.062 39.74 74.02C41.927 72.843 44.108 71.655 46.276 70.446C47.98 69.496 49.678 68.533 51.369 67.562C51.559 67.45 51.425 67.134 51.231 67.245Z" fill="white"/>
<path d="M19.806 74.817C20.061 74.462 20.141 74.019 20.304 73.619C20.475 73.2 20.641 72.778 20.802 72.355C21.131 71.485 21.437 70.608 21.72 69.722C22.271 67.994 22.811 66.213 23.039 64.412C23.056 64.281 22.843 64.216 22.803 64.351C22.282 66.106 21.884 67.892 21.32 69.637C21.041 70.498 20.741 71.353 20.418 72.199C20.257 72.622 20.09 73.043 19.917 73.462C19.788 73.775 19.598 74.064 19.479 74.379C17.27 71.404 14.973 68.489 12.586 65.651C12.648 65.612 12.693 65.546 12.689 65.443C12.657 64.721 12.724 63.983 12.753 63.261C12.78 62.589 12.811 61.917 12.845 61.245C12.88 60.573 12.919 59.901 12.962 59.23C12.984 58.882 13.013 58.533 13.023 58.185C13.025 58.125 13.06 57.91 13.027 57.845C13.023 57.819 13.013 57.795 12.996 57.775C12.978 57.745 12.956 57.746 12.932 57.765C12.926 57.746 12.92 57.727 12.913 57.708C12.907 57.689 12.883 57.689 12.869 57.697C12.658 57.824 12.69 58.07 12.666 58.294C12.629 58.641 12.607 58.989 12.582 59.337C12.533 60.008 12.487 60.678 12.446 61.35C12.366 62.646 12.376 63.966 12.249 65.259C11.289 64.124 10.32 62.998 9.33601 61.886C7.95301 60.324 6.55502 58.769 5.09202 57.28C4.98002 57.165 4.77902 57.313 4.89002 57.435C7.37702 60.175 9.863 62.909 12.232 65.751C13.64 67.441 15.005 69.164 16.341 70.91C16.315 70.891 16.292 70.87 16.251 70.865C15.815 70.815 15.331 70.921 14.892 70.954L13.434 71.066C12.462 71.14 11.49 71.213 10.519 71.29C8.57702 71.444 6.63602 71.6 4.69602 71.787C4.55502 71.801 4.59 72.006 4.728 71.999C6.652 71.906 8.57401 71.782 10.496 71.655C11.444 71.593 12.391 71.527 13.338 71.462C13.799 71.43 14.26 71.399 14.721 71.367C15.215 71.333 15.781 71.376 16.256 71.25C16.384 71.216 16.433 71.085 16.399 70.983C17.26 72.11 18.112 73.244 18.947 74.391C20.174 76.076 21.361 77.79 22.534 79.512C22.72 79.784 23.127 79.469 22.941 79.198C21.923 77.719 20.872 76.263 19.806 74.817Z" fill="white"/>
<path d="M17.17 100.845C16.288 98.608 15.328 96.398 14.321 94.206C14.356 94.198 14.388 94.179 14.405 94.135C14.91 92.876 15.389 91.627 15.765 90.322C15.937 89.726 16.093 89.125 16.232 88.521C16.305 88.204 16.37 87.885 16.439 87.567C16.502 87.278 16.649 86.971 16.538 86.686C16.508 86.609 16.409 86.611 16.36 86.665C16.179 86.862 16.193 87.138 16.144 87.392C16.083 87.712 16.005 88.029 15.928 88.346C15.767 89.01 15.592 89.67 15.401 90.326C15.049 91.539 14.664 92.765 14.198 93.941C13.739 92.946 13.274 91.954 12.797 90.968C12.842 90.89 12.836 90.789 12.725 90.754C12.714 90.75 12.702 90.748 12.69 90.744C12.065 89.457 11.431 88.175 10.783 86.902C10.451 86.251 10.116 85.601 9.777 84.954C9.455 84.34 9.16299 83.703 8.72699 83.159C8.65699 83.072 8.53601 83.156 8.56601 83.253C8.75701 83.858 9.08001 84.406 9.37201 84.968C9.66401 85.53 9.95301 86.093 10.239 86.658C10.812 87.788 11.372 88.923 11.922 90.064C12.007 90.241 12.088 90.42 12.172 90.597C11.171 90.301 10.158 90.042 9.13198 89.842C8.53298 89.725 7.93101 89.62 7.32501 89.542C7.02201 89.503 6.719 89.468 6.415 89.438C6.166 89.413 5.92101 89.339 5.70401 89.479C5.66501 89.504 5.67698 89.555 5.70498 89.581C5.88198 89.749 6.142 89.726 6.376 89.754C6.679 89.791 6.98199 89.832 7.28399 89.877C7.86699 89.964 8.448 90.056 9.026 90.167C10.15 90.382 11.258 90.663 12.355 90.987C13.307 92.99 14.232 95.005 15.113 97.04C15.684 98.358 16.226 99.688 16.786 101.011C16.892 101.251 17.267 101.09 17.17 100.845Z" fill="white"/>
<path d="M46.832 94.272C45.693 94.374 44.555 94.556 43.42 94.695C42.282 94.834 41.144 94.973 40.007 95.112C37.928 95.366 35.816 95.553 33.751 95.919C34.916 95.129 36.078 94.335 37.241 93.542C37.267 93.566 37.288 93.591 37.329 93.612C37.395 93.646 37.499 93.603 37.521 93.533C37.545 93.46 37.562 93.384 37.582 93.31C38.872 92.43 40.167 91.557 41.455 90.672C43.062 89.568 44.665 88.459 46.265 87.345C46.473 87.2 46.227 86.888 46.021 87.037C43.266 89.03 40.488 90.992 37.68 92.913C37.773 92.474 37.837 92.024 37.916 91.59C38.046 90.881 38.183 90.173 38.327 89.466C38.466 88.785 38.595 88.098 38.766 87.424C38.948 86.708 39.072 85.908 39.374 85.231C39.483 84.988 39.046 84.875 39.022 85.14C38.962 85.817 38.721 86.512 38.572 87.176C38.414 87.881 38.232 88.581 38.068 89.285C37.91 89.965 37.759 90.646 37.614 91.329C37.542 91.67 37.468 92.011 37.407 92.354C37.37 92.562 37.245 92.964 37.26 93.199C34.886 94.819 32.493 96.411 30.093 97.993C30.116 97.831 30.124 97.665 30.143 97.505C30.185 97.152 30.227 96.8 30.268 96.447C30.347 95.766 30.415 95.085 30.487 94.403C30.559 93.722 30.631 93.04 30.703 92.359C30.74 92.006 30.778 91.652 30.815 91.299C30.848 90.988 30.927 90.661 30.849 90.354C30.823 90.251 30.69 90.23 30.641 90.329C30.499 90.612 30.506 90.946 30.472 91.257C30.433 91.61 30.394 91.963 30.355 92.316C30.28 92.997 30.205 93.678 30.13 94.359C30.055 95.04 29.976 95.721 29.907 96.402C29.872 96.756 29.838 97.109 29.803 97.463C29.779 97.71 29.728 97.969 29.75 98.218C29.53 98.363 29.311 98.51 29.09 98.655C28.296 99.176 27.499 99.693 26.704 100.213C25.87 100.759 25.01 101.28 24.242 101.913C24.185 101.96 24.239 102.062 24.31 102.027C25.813 101.293 27.198 100.268 28.594 99.352C29.037 99.061 29.476 98.766 29.918 98.474L29.921 98.472C30.917 97.815 31.915 97.159 32.905 96.493C33.066 96.384 33.226 96.273 33.387 96.164C35.614 96.048 37.843 95.698 40.056 95.437C41.169 95.305 42.282 95.174 43.396 95.043C44.558 94.906 45.732 94.811 46.888 94.636C47.128 94.603 47.073 94.25 46.832 94.272Z" fill="white"/>
</svg>
