<svg width="54" height="99" viewBox="0 0 54 99" fill="none" xmlns="http://www.w3.org/2000/svg">
<path d="M19.613 2.06603C19.589 2.02603 19.565 1.98603 19.542 1.94603C19.483 1.87003 19.408 1.81403 19.32 1.77703C19.251 1.74603 19.179 1.73301 19.105 1.74101C19.032 1.73501 18.962 1.74902 18.895 1.78102C18.827 1.80702 18.771 1.84803 18.726 1.90203C18.671 1.94903 18.632 2.00603 18.606 2.07503C18.568 2.16803 18.557 2.26403 18.571 2.36403C18.574 2.38503 18.576 2.40703 18.578 2.42803C18.586 2.49303 18.602 2.55802 18.63 2.61702C18.653 2.65502 18.676 2.69401 18.698 2.73201C18.73 2.76301 18.762 2.79501 18.793 2.82601C18.832 2.84901 18.872 2.87103 18.911 2.89403C18.978 2.92403 19.046 2.936 19.118 2.929C19.165 2.935 19.21 2.92802 19.254 2.91002C19.3 2.90302 19.341 2.88501 19.377 2.85701C19.419 2.83901 19.454 2.81101 19.482 2.77501C19.534 2.73001 19.573 2.67503 19.597 2.60903C19.599 2.60403 19.602 2.59901 19.604 2.59401C19.605 2.59201 19.606 2.58902 19.607 2.58602L19.643 2.44701C19.644 2.43601 19.646 2.42502 19.647 2.41402C19.65 2.39302 19.652 2.37102 19.655 2.35002C19.665 2.25102 19.652 2.15703 19.613 2.06603Z" fill="#C9FFAF"/>
<path d="M18.407 1.15903L18.409 1.15503L18.408 1.15604L18.407 1.15903Z" fill="#C9FFAF"/>
<path d="M18.41 1.15204L18.411 1.14502L18.409 1.15503L18.41 1.15204Z" fill="#C9FFAF"/>
<path d="M18.323 1.36505C18.366 1.30105 18.398 1.23307 18.408 1.15607C18.415 1.11907 18.43 1.08407 18.427 1.04507C18.432 0.999074 18.426 0.954072 18.408 0.911072C18.401 0.866072 18.384 0.82607 18.356 0.79007C18.338 0.74907 18.311 0.714073 18.275 0.687073C18.247 0.651073 18.212 0.625056 18.17 0.607056C18.113 0.568056 18.049 0.545063 17.978 0.539062C17.932 0.540063 17.886 0.540046 17.84 0.541046C17.797 0.553046 17.754 0.565064 17.711 0.578064C17.673 0.600064 17.635 0.62305 17.597 0.64505C17.566 0.67605 17.535 0.708075 17.504 0.739075C17.482 0.778075 17.459 0.816072 17.437 0.855072C17.407 0.920072 17.396 0.988075 17.403 1.05807C17.398 1.10407 17.404 1.14905 17.422 1.19205C17.435 1.25805 17.464 1.31706 17.508 1.37006C17.51 1.37206 17.511 1.37408 17.513 1.37708L17.514 1.37805C17.545 1.40905 17.576 1.43906 17.606 1.46906L17.607 1.47006C17.608 1.47106 17.609 1.47205 17.61 1.47305C17.611 1.47405 17.612 1.47507 17.614 1.47507C17.622 1.48007 17.718 1.53507 17.727 1.54007C17.728 1.54007 17.728 1.54105 17.729 1.54105C17.732 1.54205 17.734 1.54307 17.737 1.54407C17.82 1.57807 17.906 1.58805 17.995 1.57605C18.06 1.56905 18.119 1.54706 18.171 1.50906C18.199 1.49506 18.218 1.46907 18.241 1.44907C18.237 1.45307 18.234 1.45605 18.23 1.46005C18.231 1.46005 18.231 1.45908 18.231 1.45908C18.234 1.45608 18.238 1.45207 18.241 1.44907C18.265 1.42907 18.293 1.41507 18.312 1.38907C18.316 1.38407 18.315 1.37706 18.319 1.37106C18.32 1.37006 18.321 1.36807 18.322 1.36707C18.323 1.36607 18.323 1.36605 18.324 1.36505C18.346 1.32605 18.368 1.28805 18.391 1.24905C18.404 1.22005 18.4 1.18906 18.406 1.15906C18.397 1.19506 18.387 1.23207 18.378 1.26807C18.36 1.30007 18.342 1.33305 18.323 1.36505Z" fill="#C9FFAF"/>
<path d="M20.282 0.867038C20.288 0.820038 20.281 0.775028 20.263 0.732028C20.255 0.711028 20.246 0.690033 20.237 0.668033C20.227 0.651033 20.217 0.634038 20.207 0.617038C20.193 0.603038 20.179 0.589046 20.165 0.575046C20.148 0.565046 20.13 0.555047 20.113 0.545047C20.084 0.532047 20.053 0.526032 20.021 0.530032C20 0.528032 19.98 0.530035 19.961 0.539035C19.941 0.542035 19.922 0.550045 19.906 0.562045C19.887 0.570045 19.872 0.582025 19.859 0.598025C19.836 0.618025 19.819 0.642023 19.808 0.671023C19.799 0.692023 19.79 0.713019 19.782 0.735019C19.767 0.768019 19.761 0.802046 19.765 0.838046C19.762 0.873046 19.769 0.906022 19.784 0.938022C19.791 0.950022 19.798 0.962032 19.805 0.974032C19.808 0.984032 19.811 0.993024 19.813 1.00302C19.823 1.02002 19.833 1.03704 19.843 1.05304C19.857 1.06704 19.871 1.08003 19.884 1.09403L19.935 1.12403C19.964 1.13703 19.994 1.14204 20.025 1.13904C20.045 1.14104 20.065 1.13905 20.084 1.13105C20.104 1.12805 20.122 1.12004 20.137 1.10804C20.155 1.10004 20.171 1.08802 20.183 1.07202C20.206 1.05202 20.222 1.02903 20.233 1.00003C20.236 0.990033 20.239 0.979027 20.242 0.969027C20.243 0.967027 20.245 0.966023 20.246 0.964023C20.267 0.936023 20.279 0.903038 20.282 0.867038Z" fill="#C9FFAF"/>
<path d="M21.171 2.44303C21.166 2.43203 21.161 2.42104 21.156 2.41004C21.154 2.40404 21.151 2.39904 21.148 2.39304L21.146 2.38904L21.145 2.38703C21.139 2.37603 21.132 2.36604 21.126 2.35504L21.1 2.32904C21.089 2.32304 21.078 2.31603 21.067 2.31003C21.043 2.29903 21.032 2.30002 21.01 2.30002C20.997 2.29802 20.985 2.30003 20.973 2.30503C20.967 2.30603 20.961 2.30803 20.955 2.31003C20.949 2.31203 20.944 2.31504 20.939 2.32004C20.927 2.32504 20.918 2.33302 20.91 2.34302C20.9 2.35102 20.892 2.36102 20.888 2.37302C20.884 2.37802 20.881 2.38405 20.878 2.39005L20.876 2.39405C20.873 2.40005 20.871 2.40504 20.868 2.41104C20.863 2.42204 20.858 2.43404 20.853 2.44504C20.828 2.50104 20.84 2.56904 20.876 2.61704C20.895 2.64104 20.918 2.65905 20.946 2.67005C20.968 2.68005 20.99 2.68403 21.014 2.68103C21.037 2.68303 21.059 2.67903 21.08 2.66803C21.108 2.65603 21.131 2.63805 21.149 2.61405C21.186 2.56705 21.196 2.49903 21.171 2.44303Z" fill="#C9FFAF"/>
<path d="M15.013 2.57003C14.996 2.53103 14.97 2.49803 14.936 2.47103C14.91 2.45003 14.881 2.43602 14.848 2.43102C14.816 2.42002 14.784 2.41702 14.75 2.42302C14.717 2.42702 14.688 2.43802 14.661 2.45702C14.632 2.47102 14.608 2.49102 14.589 2.51802C14.562 2.55402 14.546 2.59302 14.54 2.63802C14.536 2.65402 14.532 2.66902 14.528 2.68502C14.521 2.71402 14.528 2.75801 14.529 2.79201C14.529 2.80601 14.53 2.82101 14.531 2.83501C14.531 2.84201 14.532 2.84901 14.532 2.85701C14.533 2.88101 14.539 2.89903 14.547 2.92403C14.56 2.95403 14.58 2.98002 14.606 3.00002C14.626 3.01602 14.648 3.02702 14.673 3.03102C14.697 3.04002 14.722 3.04201 14.748 3.03701C14.781 3.03201 14.811 3.01901 14.837 2.99901C14.845 2.99401 14.852 2.98802 14.857 2.97902C14.864 2.97202 14.871 2.96603 14.877 2.95803C14.88 2.95503 14.883 2.95202 14.885 2.94802C14.89 2.94302 14.894 2.93702 14.899 2.93202L14.931 2.89501C14.936 2.88901 14.941 2.88303 14.947 2.87703C14.966 2.85603 14.977 2.83603 14.991 2.80803C14.998 2.79303 15.005 2.777 15.012 2.761C15.029 2.719 15.034 2.67603 15.028 2.63103C15.025 2.61103 15.019 2.59103 15.013 2.57003Z" fill="#C9FFAF"/>
<path d="M52.935 20.7811C52.631 19.3221 51.198 18.1131 49.704 18.6091C49.71 18.2351 49.707 17.8601 49.683 17.4871C49.624 16.5471 49.475 15.5191 48.705 14.8801C47.983 14.2811 47.065 14.4341 46.365 14.9791C45.525 15.6341 44.901 16.6351 44.484 17.6021C44.402 17.7931 44.324 17.9951 44.251 18.2021C44.141 17.4501 43.837 16.7051 43.062 16.4291C42.202 16.1231 41.528 16.7581 41.162 17.4731C40.886 18.0111 40.684 18.6011 40.518 19.1981C40.181 18.4641 39.299 18.0841 38.483 18.1871C37.375 18.3271 36.566 19.3261 36.272 20.3451C35.871 21.7331 36.249 23.2381 36.623 24.5901C36.991 25.9181 37.469 27.2191 38.061 28.4631C38.698 29.8001 39.47 31.0701 40.351 32.2591C40.073 33.5321 39.843 34.8181 39.544 36.0861C39.153 37.7411 38.707 39.3851 38.211 41.0111C37.551 43.1751 36.785 45.3051 35.935 47.4021C36.119 45.7851 36.231 44.1571 36.249 42.5371C36.278 39.9541 36.032 37.3661 35.238 34.8981C34.972 34.0701 34.617 32.7151 33.628 32.4711C32.674 32.2351 32.17 33.1981 32.017 33.9781C31.906 34.5441 31.908 35.1411 31.892 35.7161C31.874 36.3581 31.875 37.0011 31.896 37.6431C31.939 38.9551 32.069 40.2641 32.285 41.5581C32.76 44.4061 33.672 47.1631 34.933 49.7581C34.813 50.0291 34.699 50.3021 34.576 50.5721C34.03 51.7621 33.444 52.9321 32.839 54.0931C32.816 54.1141 32.794 54.1371 32.77 54.1571C32.685 54.2321 32.662 54.3251 32.672 54.4131C30.936 57.7001 28.962 60.8601 26.772 63.8631C26.834 63.6651 26.896 63.4671 26.956 63.2731C27.262 62.2881 27.517 61.2871 27.722 60.2771C27.931 59.2431 28.085 58.1981 28.182 57.1471C28.274 56.1611 28.391 55.1111 28.265 54.1231C28.163 53.3201 27.774 52.5271 26.982 52.2141C26.29 51.9411 25.574 52.2111 25.205 52.8481C24.784 53.5731 24.786 54.4941 24.743 55.3051C24.688 56.3511 24.689 57.4001 24.744 58.4461C24.859 60.6541 25.245 62.8321 25.834 64.9611C25.798 65.0621 25.76 65.1621 25.727 65.2631C25.082 66.1061 24.424 66.9391 23.744 67.7541C21.597 70.3261 19.259 72.7211 16.874 75.0701C16.845 75.0871 16.815 75.1041 16.786 75.1211C17.384 73.7741 17.958 72.4171 18.484 71.0411C20.454 65.8851 21.919 60.5341 22.853 55.0951C23.787 49.6571 24.184 44.1311 24.032 38.6151C24.011 37.8381 23.977 37.0601 23.935 36.2811C25.109 34.4961 26.013 32.5151 26.715 30.5051C27.477 28.3241 28 26.0561 28.241 23.7581C28.302 23.1721 28.355 22.5831 28.366 21.9941C28.374 21.5841 28.378 21.1531 28.215 20.7681C27.95 20.1411 27.269 19.7981 26.729 20.3531C26.421 20.6691 26.294 21.1091 26.168 21.5191C25.979 22.1371 25.802 22.7571 25.633 23.3811C25.308 24.5821 25.018 25.7901 24.757 27.0061C24.451 28.4371 24.18 29.8751 23.945 31.3191C23.859 31.8471 23.77 32.3781 23.684 32.9101C23.343 29.3101 22.755 25.7261 21.828 22.2511C21.73 21.8851 21.611 21.5271 21.489 21.1711C23.413 19.5141 24.854 17.2961 25.807 14.9561C26.311 13.7171 26.69 12.4151 26.903 11.0941C27.106 9.83406 27.115 8.42806 26.362 7.33506C25.74 6.43206 24.571 5.87006 23.504 6.17106C23.274 5.36106 22.892 4.60907 22.215 4.05207C21.315 3.31107 19.841 3.19207 18.991 4.02607C18.588 3.12907 17.878 2.21008 16.779 2.45008C15.676 2.69008 15.554 3.97608 15.612 4.89808C15.619 5.00208 15.634 5.10508 15.641 5.20908C15.606 5.18108 15.558 5.16605 15.497 5.17905C14.383 5.41405 13.569 6.42108 13.157 7.43308C12.791 8.33108 12.741 9.29406 12.882 10.2361C12.086 10.6981 11.701 11.7141 11.616 12.5871C11.515 13.6271 11.808 14.6461 12.328 15.5421C12.88 16.4951 13.648 17.2991 14.463 18.0321C15.327 18.8091 16.273 19.5111 17.27 20.1071C18.405 20.7851 19.606 21.3351 20.862 21.7481C20.876 21.7531 20.888 21.7501 20.902 21.7531C21.325 24.0211 21.856 26.2681 22.217 28.5491C22.641 31.2321 22.925 33.9371 23.071 36.6491C23.161 38.3161 23.192 39.9851 23.178 41.6541C23.169 41.6051 23.159 41.5541 23.15 41.5051C22.94 40.3801 22.653 39.2671 22.315 38.1741C21.976 37.0781 21.575 36.0021 21.116 34.9511C20.721 34.0491 20.332 32.9541 19.604 32.2611C19.02 31.7051 18.006 31.4781 17.404 32.1371C16.808 32.7891 16.992 33.8251 17.112 34.6131C17.418 36.6101 18.036 38.5571 18.943 40.3631C19.97 42.4071 21.352 44.2521 23.022 45.8151C23.027 45.8191 23.032 45.8201 23.036 45.8241C22.894 48.2171 22.654 50.6041 22.307 52.9761C21.516 58.3821 20.199 63.7091 18.381 68.8611C17.462 71.4661 16.414 74.0281 15.242 76.5321C15.511 75.5011 15.759 74.4651 15.962 73.4171C16.509 70.5911 16.801 67.7041 16.889 64.8291C16.945 62.9801 16.905 61.1291 16.788 59.2851C18.86 55.7761 19.983 51.7511 20.136 47.6791C20.167 46.8611 20.215 45.9581 19.82 45.2101C19.45 44.5091 18.67 44.2061 17.933 44.5391C17.008 44.9581 16.711 45.9831 16.476 46.8851C16.186 47.9921 15.967 49.1161 15.824 50.2511C15.782 50.5861 15.745 50.9231 15.715 51.2621C15.474 50.0931 15.205 48.9291 14.891 47.7751C14.467 46.2191 13.973 44.6831 13.412 43.1711C13.055 42.2091 12.671 41.2421 12.216 40.3131C12.235 40.2781 12.252 40.2411 12.262 40.1971C12.36 39.7511 12.522 39.2961 12.724 38.8681C12.823 38.6591 12.928 38.4541 13.043 38.2671C13.171 38.0591 13.347 37.8261 13.368 37.5771C13.379 37.5631 13.392 37.5501 13.403 37.5361C14.102 36.6701 14.684 35.7061 15.139 34.6911C15.615 33.6311 15.993 32.4721 16.122 31.3141C16.242 30.2431 16.048 29.0791 15.23 28.3121C14.561 27.6851 13.428 27.5141 12.686 28.0681C12.375 27.5741 11.957 27.1631 11.395 26.8971C10.474 26.4611 9.336 26.7161 8.767 27.5481C8.74 27.5021 8.715 27.4531 8.687 27.4071C8.274 26.7251 7.599 25.9871 6.72 26.0951C5.844 26.2021 5.352 27.0751 5.298 27.8841C5.233 28.8561 5.50299 29.8931 5.77299 30.8181C6.05599 31.7881 6.44001 32.7251 6.89101 33.6281C7.90701 35.6631 9.23299 37.5221 10.566 39.3571C8.17199 38.6721 5.95301 37.2401 4.46001 35.2381C3.69801 34.2161 3.113 32.9401 3.312 31.6371C3.397 31.0831 3.621 30.5461 3.97 30.1061C4.143 29.8871 4.34501 29.7111 4.57201 29.5501C4.78101 29.4021 5.027 29.2981 5.211 29.1201C5.296 29.0381 5.263 28.9091 5.145 28.8841C4.279 28.6981 3.45001 29.7701 3.11501 30.4281C2.65001 31.3401 2.597 32.3841 2.866 33.3631C2.925 33.5771 3.00501 33.7841 3.08701 33.9891C3.07501 33.9971 3.061 34.0011 3.05 34.0131C2.857 34.2221 2.8 34.5321 2.72 34.8011C2.636 35.0851 2.57399 35.3771 2.52499 35.6701C2.43299 36.2341 2.40601 36.8191 2.51401 37.3821C2.70801 38.3901 3.294 39.1861 4.215 39.6431C5.225 40.1441 6.44201 40.3211 7.54401 40.4991C8.20501 40.6061 8.87 40.6931 9.537 40.7521C10.194 40.8111 10.854 40.8071 11.51 40.8611C11.79 41.5971 12.079 42.3301 12.351 43.0671C12.835 44.3791 13.264 45.7101 13.656 47.0531C14.444 49.7571 15.024 52.5241 15.404 55.3151C15.63 56.9751 15.777 58.6441 15.861 60.3161C15.604 58.7711 15.136 57.2541 14.536 55.8161C13.564 53.4861 12.164 51.3321 10.412 49.5131C9.677 48.7491 8.526 47.8041 7.425 48.4921C6.533 49.0501 6.59899 50.2301 6.84199 51.1191C7.47399 53.4371 8.612 55.6651 9.967 57.6401C11.445 59.7941 13.288 61.6921 15.386 63.2481C15.501 63.4841 15.615 63.7201 15.736 63.9521C15.781 64.0381 15.858 64.0691 15.932 64.0611C15.897 66.7721 15.683 69.4811 15.27 72.1631C15.028 73.7331 14.736 75.2971 14.394 76.8491C14.196 77.7461 13.989 78.6451 13.758 79.5371C13.697 79.6551 13.632 79.7701 13.57 79.8871C13.614 79.5691 13.652 79.2521 13.683 78.9351C13.788 77.8761 13.82 76.8111 13.782 75.7481C13.704 73.5711 13.341 71.4111 12.676 69.3351C12.527 68.8691 12.365 68.4061 12.183 67.9521C12.021 67.5471 11.814 67.0991 11.392 66.9091C11.062 66.7601 10.665 66.7801 10.406 67.0521C10.105 67.3681 10.121 67.8701 10.095 68.2761C9.953 70.4521 10.06 72.6441 10.421 74.7951C10.829 77.2231 11.577 79.5401 12.537 81.8011C12.185 82.4321 11.827 83.0601 11.457 83.6811C10.066 86.0141 8.565 88.2821 6.948 90.4661C5.33 92.6521 3.579 94.7251 1.806 96.7851C1.363 97.3001 0.924003 97.8101 0.507003 98.3461C0.393003 98.4931 0.594005 98.6971 0.740005 98.5761C1.80901 97.6981 2.753 96.6821 3.679 95.6561C4.591 94.6471 5.467 93.6081 6.311 92.5421C8.023 90.3821 9.62 88.1321 11.097 85.8061C11.932 84.4921 12.723 83.1501 13.48 81.7881C13.52 81.7691 13.556 81.7351 13.577 81.6791C13.601 81.6121 13.625 81.5461 13.65 81.4791C14.603 79.7471 15.491 77.9801 16.318 76.1841C16.51 76.0311 16.691 75.8651 16.881 75.7091C17.309 75.8241 17.744 75.7271 18.181 75.6381C18.721 75.5291 19.258 75.3961 19.79 75.2511C20.838 74.9641 21.864 74.6101 22.867 74.1921C24.888 73.3501 26.811 72.2641 28.576 70.9681C29.599 70.2171 30.565 69.3941 31.472 68.5071C31.655 68.3281 31.554 67.9881 31.266 68.0271C27.66 68.5161 24.168 69.8531 21.09 71.7931C21.905 70.9491 22.705 70.0901 23.479 69.2071C24.503 68.0371 25.483 66.8281 26.43 65.5931C26.45 65.5731 26.469 65.5521 26.482 65.5261C27.605 64.0581 28.678 62.5511 29.692 61.0071C31.151 58.7851 32.489 56.4851 33.71 54.1251C33.719 54.1231 33.726 54.1281 33.735 54.1231C33.784 54.1011 33.83 54.0731 33.877 54.0481C33.842 54.0841 33.801 54.1131 33.768 54.1531C33.764 54.1581 33.767 54.1681 33.774 54.1681C34.36 54.1811 34.86 53.8921 35.376 53.6301C35.931 53.3491 36.479 53.0531 37.018 52.7431C38.097 52.1221 39.139 51.4341 40.143 50.7001C42.171 49.2171 44.042 47.5201 45.717 45.6481C46.381 44.9061 47.531 43.8781 47.113 42.7601C46.647 41.5111 45.163 42.2301 44.333 42.6321C42.137 43.6951 40.346 45.4251 38.775 47.2601C37.361 48.9121 36.078 50.6801 34.626 52.2951C34.887 51.7561 35.132 51.211 35.38 50.666C35.427 50.651 35.468 50.6211 35.48 50.5561C35.49 50.5021 35.496 50.4481 35.506 50.3941C36.683 47.7871 37.722 45.1191 38.597 42.3961C39.181 40.5771 39.696 38.7371 40.132 36.8771C40.464 35.4621 40.791 34.0121 40.991 32.5571C41.101 32.4831 41.173 32.3591 41.159 32.2241C41.707 32.1311 42.249 31.9761 42.774 31.8081C43.502 31.5751 44.214 31.2911 44.902 30.9591C46.231 30.3181 47.482 29.5061 48.604 28.5481C49.755 27.5661 50.778 26.4241 51.621 25.1671C52.478 23.8911 53.265 22.3661 52.935 20.7811ZM24.347 32.1671C24.513 31.0281 24.704 29.8931 24.915 28.7621C25.337 26.5011 25.858 24.2611 26.4 22.0261C26.514 21.5581 26.586 21.0041 26.874 20.6021C26.945 20.5031 27.036 20.4221 27.138 20.3681C27.137 20.3711 27.136 20.3731 27.135 20.3751C27.023 21.0241 26.982 21.6901 26.889 22.3431C26.796 22.9981 26.692 23.6501 26.577 24.3021C26.35 25.5811 26.091 26.8541 25.801 28.1201C25.303 30.2891 24.686 32.4191 24.047 34.5471C24.144 33.7541 24.231 32.9581 24.347 32.1671ZM26.081 28.2981C26.385 27.0101 26.655 25.7151 26.893 24.4141C27.012 23.7631 27.125 23.1111 27.234 22.4591C27.345 21.7891 27.495 21.1051 27.551 20.4281C27.554 20.3961 27.55 20.3681 27.542 20.3421C27.546 20.3431 27.549 20.3421 27.553 20.3441C27.815 20.4531 27.895 20.7381 27.947 20.9901C28.031 21.3981 27.986 21.7971 27.954 22.2091C27.911 22.7751 27.868 23.3401 27.8 23.9041C27.549 26.0091 27.089 28.0901 26.412 30.0991C25.77 32.0041 24.906 33.7941 23.951 35.5501C24.83 33.1921 25.505 30.7441 26.081 28.2981ZM23.809 7.95105C23.776 7.57605 23.729 7.19507 23.659 6.81907C24.536 6.53407 25.514 7.05705 25.995 7.81705C26.665 8.87505 26.491 10.2931 26.269 11.4561C25.823 13.7871 24.884 16.0201 23.578 17.9991C23.158 18.6361 22.691 19.2451 22.202 19.8351C22.662 18.9171 22.975 17.8991 23.226 16.9421C23.609 15.4841 23.82 13.9861 23.9 12.4821C23.98 10.9721 23.939 9.45505 23.809 7.95105ZM13.441 8.45505C13.678 7.14705 14.448 6.17405 15.602 5.55005C15.63 5.53505 15.651 5.51308 15.668 5.48908C15.868 7.94108 16.34 10.3721 17.061 12.7231C17.757 14.9881 18.696 17.1691 19.842 19.2401C18.431 18.1941 17.142 17.0101 16.071 15.5841C15.317 14.5811 14.648 13.5021 14.13 12.3581C13.582 11.1471 13.2 9.78805 13.441 8.45505ZM20.633 20.8991C18.265 20.1021 16.068 18.8161 14.275 17.0661C13.352 16.1651 12.478 15.0631 12.221 13.7691C12.104 13.1831 12.112 12.5631 12.276 11.9861C12.418 11.4881 12.674 11.1051 12.969 10.7111C13.013 10.9151 13.063 11.1171 13.122 11.3161C13.521 12.6501 14.218 13.8981 14.983 15.0551C15.715 16.1611 16.557 17.1991 17.486 18.1451C18.435 19.1101 19.488 20.0051 20.64 20.7261C20.639 20.7831 20.637 20.8411 20.633 20.8991ZM20.703 19.3931C18.465 15.5201 17.003 11.2071 16.443 6.76706C16.369 6.18006 16.309 5.59107 16.269 5.00107C16.237 4.52907 16.201 3.98807 16.412 3.54807C16.663 3.02807 17.228 2.98806 17.676 3.29706C18.144 3.62106 18.351 4.21005 18.537 4.72205C19.418 7.13905 20.029 9.66306 20.381 12.2111C20.71 14.5861 20.794 16.9961 20.703 19.3931ZM21.152 20.1511C21.137 20.1261 21.123 20.1021 21.109 20.0781C21.704 14.9281 20.997 9.61307 19.258 4.73807C19.978 3.76007 21.343 3.99808 22.101 4.81208C22.565 5.30908 22.824 5.92107 22.98 6.57007C22.976 6.63907 22.99 6.70606 23.022 6.76606C23.15 7.38206 23.199 8.02407 23.242 8.63007C23.432 11.2851 23.342 13.9891 22.708 16.5841C22.534 17.2971 22.312 18.0001 22.045 18.6841C21.834 19.2261 21.584 19.7501 21.349 20.2811C21.282 20.2371 21.217 20.1941 21.152 20.1511ZM17.863 35.9551C17.673 35.1381 17.463 34.2471 17.483 33.4031C17.492 33.0281 17.564 32.5841 17.901 32.3581C17.949 32.3261 18 32.3031 18.051 32.2831C18.469 34.6141 19.226 36.9181 20.064 39.1291C20.484 40.2361 20.945 41.3271 21.425 42.4081C21.665 42.9491 21.911 43.4871 22.17 44.0181C22.229 44.1391 22.288 44.2641 22.347 44.3881C20.166 42.0201 18.593 39.0931 17.863 35.9551ZM22.629 43.8211C22.353 43.2971 22.081 42.7701 21.823 42.2371C21.316 41.1921 20.863 40.1221 20.445 39.0391C19.584 36.8141 18.952 34.5361 18.304 32.2431C18.302 32.2361 18.295 32.2341 18.292 32.2271C18.665 32.2031 19.058 32.4171 19.308 32.6761C19.619 32.9981 19.821 33.4121 20.019 33.8081C20.241 34.2501 20.451 34.6981 20.651 35.1511C21.069 36.0971 21.438 37.0651 21.758 38.0481C22.114 39.1411 22.4 40.2521 22.635 41.3771C22.755 41.9501 22.86 42.5251 22.948 43.1031C23.007 43.4931 23.05 43.8871 23.115 44.2761C23.11 44.4021 23.104 44.5281 23.098 44.6541C22.941 44.3761 22.777 44.1001 22.629 43.8211ZM18.756 48.4821C18.805 47.8651 18.844 47.2481 18.871 46.6301C18.895 46.0861 18.953 45.5151 18.928 44.9691C19.138 45.0581 19.326 45.2251 19.458 45.5121C19.801 46.2561 19.714 47.1601 19.678 47.9531C19.586 49.9511 19.248 51.9421 18.681 53.8611C18.252 55.3141 17.686 56.7341 17.024 58.1031C17.59 56.1321 18.025 54.1271 18.336 52.0981C18.52 50.8981 18.659 49.6921 18.756 48.4821ZM16.187 51.7071C16.258 50.6811 16.385 49.6591 16.573 48.6471C16.667 48.1421 16.776 47.6391 16.9 47.1401C17.026 46.6341 17.149 46.1011 17.414 45.6461C17.649 45.2431 18.039 44.9641 18.429 44.9031C18.378 45.4991 18.415 46.1141 18.389 46.7131C18.364 47.2831 18.329 47.8541 18.286 48.4231C18.195 49.6091 18.065 50.7931 17.899 51.9701C17.611 54.0231 17.192 56.0591 16.692 58.0721C16.563 56.5541 16.384 55.0401 16.136 53.5361C16.133 52.9281 16.145 52.3181 16.187 51.7071ZM10.506 40.2211C9.678 40.2031 8.83699 40.1051 8.03799 39.9961C6.97499 39.8501 5.86001 39.6831 4.84801 39.3131C3.85701 38.9511 3.195 38.2441 3.02 37.1871C2.936 36.6801 2.964 36.1691 3.045 35.6641C3.088 35.3931 3.14999 35.1261 3.20399 34.8571C3.23099 34.7221 3.27 34.5851 3.293 34.4481C4.116 36.1261 5.63799 37.5141 7.15199 38.5101C8.19199 39.1941 9.328 39.7151 10.52 40.0691C10.51 40.1031 10.491 40.1331 10.491 40.1701C10.491 40.1871 10.503 40.2031 10.506 40.2211ZM10.92 38.7791C8.844 35.9431 6.72001 32.9391 6.04201 29.4291C5.88901 28.6381 5.62999 27.4401 6.38699 26.8661C7.16999 26.2721 7.93101 27.2961 8.26401 27.9051C9.17101 29.5671 9.82299 31.4031 10.26 33.2421C10.507 34.2831 10.686 35.3421 10.796 36.4061C10.877 37.1861 10.902 37.9701 10.938 38.7531C10.931 38.7621 10.926 38.7711 10.92 38.7791ZM11.504 38.0691C11.527 36.4381 11.256 34.7651 10.892 33.2171C10.488 31.4971 9.925 29.7101 9.09 28.1241C9.119 28.0981 9.146 28.0661 9.166 28.0251C9.427 27.4961 10.042 27.2421 10.612 27.3081C11.198 27.3761 11.7 27.7691 12.04 28.2331C12.819 29.2951 12.888 30.8451 12.889 32.1131C12.89 33.4141 12.702 34.7211 12.324 35.9671C12.141 36.5701 11.924 37.1711 11.667 37.7461C11.617 37.8551 11.557 37.9601 11.504 38.0691ZM12.018 38.1451C12.292 37.6171 12.533 37.0711 12.719 36.5381C13.109 35.4201 13.36 34.2511 13.454 33.0701C13.559 31.7531 13.565 29.9901 12.978 28.6291C13.383 28.3071 13.931 28.2271 14.413 28.4421C14.998 28.7031 15.371 29.3051 15.516 29.9111C15.823 31.2021 15.351 32.6781 14.887 33.8781C14.436 35.0431 13.814 36.1301 13.058 37.1241C13.003 37.1971 12.941 37.2631 12.884 37.3351C12.69 37.4531 12.544 37.6731 12.43 37.8581C12.42 37.8751 12.412 37.8941 12.401 37.9111C12.335 37.9841 12.267 38.0551 12.2 38.1271C12.138 38.1141 12.076 38.1231 12.018 38.1451ZM7.92 52.6121C7.578 51.7321 7.051 50.6111 7.268 49.6431C7.322 49.4051 7.443 49.2221 7.604 49.0941C9.09 51.4961 10.582 53.8901 11.943 56.3681C12.612 57.5861 13.261 58.8171 13.876 60.0631C14.202 60.7221 14.508 61.3911 14.818 62.0581C11.757 59.5651 9.351 56.2971 7.92 52.6121ZM15.629 62.6931C15.205 61.7461 14.727 60.8211 14.261 59.8961C13.614 58.6131 12.948 57.3401 12.252 56.0831C10.901 53.6431 9.473 51.2271 7.864 48.9461C8.037 48.8861 8.23399 48.8721 8.44099 48.9111C9.03099 49.0221 9.495 49.499 9.892 49.916C11.485 51.586 12.794 53.5231 13.779 55.6091C14.858 57.8941 15.438 60.3211 15.781 62.8121C15.729 62.7751 15.681 62.7321 15.629 62.6931ZM12.87 81.1881C11.298 77.7381 10.525 73.8601 10.491 70.0841C10.487 69.6111 10.495 69.1391 10.515 68.6661C10.526 68.4161 10.479 67.8141 10.643 67.4771C11.19 69.7661 11.684 72.0731 12.087 74.3921C12.285 75.5321 12.459 76.6771 12.611 77.8241C12.687 78.3971 12.757 78.9741 12.8 79.5511C12.836 80.0291 12.827 80.5811 12.935 81.0671C12.913 81.1071 12.892 81.1471 12.87 81.1881ZM13.287 78.7511C13.274 78.8811 13.252 79.0101 13.236 79.1401C13.169 78.7051 13.104 78.2681 13.043 77.8321C12.878 76.6621 12.691 75.4951 12.484 74.3321C12.068 72.0021 11.561 69.6951 10.935 67.4121C10.914 67.3351 10.849 67.3051 10.785 67.3011C10.826 67.2721 10.87 67.2481 10.924 67.2401C11.457 67.1561 11.697 67.8581 11.847 68.2401C12.034 68.7161 12.204 69.2001 12.357 69.6881C12.945 71.5571 13.295 73.5131 13.381 75.4711C13.428 76.5651 13.396 77.6621 13.287 78.7511ZM20.122 74.6281C19.518 74.8191 18.908 74.9871 18.292 75.1331C17.993 75.2041 17.677 75.2591 17.379 75.3521C17.483 75.2501 17.593 75.1541 17.7 75.0551C18.575 74.6821 19.427 74.2391 20.281 73.8351C21.486 73.2641 22.692 72.6931 23.897 72.1221C25.102 71.5511 26.306 70.9761 27.516 70.4151C28.098 70.1451 28.681 69.8751 29.263 69.6051C29.371 69.5551 29.482 69.5061 29.592 69.4581C26.81 71.7861 23.595 73.5301 20.122 74.6281ZM27.933 69.2381C28.53 69.0711 29.133 68.9431 29.738 68.8281C29.471 68.9651 29.205 69.1061 28.941 69.2341L27.208 70.0781C26.009 70.6621 24.802 71.2301 23.598 71.8041C22.394 72.3781 21.19 72.9521 19.986 73.5261C19.586 73.7171 19.181 73.9031 18.776 74.0911C21.443 71.8481 24.568 70.1801 27.933 69.2381ZM26.153 64.0811C25.781 62.6651 25.517 61.2221 25.363 59.7661C25.167 57.9151 25.096 55.9911 25.32 54.1391C25.383 53.6171 25.57 52.8971 26.072 52.6721C25.754 54.6391 25.671 56.6381 25.716 58.6281C25.739 59.6451 25.801 60.6601 25.902 61.6721C25.952 62.1781 26.008 62.6841 26.071 63.1881C26.102 63.4341 26.105 63.7491 26.174 64.0221C26.167 64.0411 26.161 64.0621 26.153 64.0811ZM26.369 61.6031C26.267 60.6161 26.203 59.6251 26.175 58.6331C26.119 56.6191 26.247 54.6101 26.419 52.6041C26.453 52.6041 26.482 52.5961 26.519 52.6001C27.449 52.7081 27.758 53.7291 27.802 54.5181C27.853 55.4361 27.762 56.3791 27.671 57.2921C27.578 58.2281 27.44 59.1591 27.258 60.0821C27.069 61.0441 26.827 61.9961 26.542 62.9341C26.476 62.4911 26.415 62.0481 26.369 61.6031ZM42.809 44.0691C43.284 43.7311 43.78 43.4231 44.299 43.1571C44.796 42.9021 45.406 42.5601 45.969 42.5051C46.781 42.4261 46.805 43.3261 46.519 43.8451C46.235 44.3611 45.785 44.8081 45.397 45.2471C43.843 47.0031 42.111 48.6011 40.241 50.0141C39.214 50.7901 38.146 51.5101 37.042 52.1721C36.454 52.5251 35.859 52.8651 35.253 53.1861C35.162 53.2341 35.069 53.2801 34.977 53.3261C34.999 53.3111 35.021 53.2941 35.042 53.2791C35.491 52.9611 35.935 52.6371 36.375 52.3061C37.255 51.6461 38.116 50.9611 38.958 50.2541C40.641 48.8411 42.263 47.3501 43.792 45.7721C44.665 44.8711 45.509 43.9421 46.326 42.9891C46.572 42.7021 46.1 42.3421 45.859 42.6331C44.081 44.7821 42.162 46.8381 40.095 48.7121C39.084 49.6281 38.043 50.5101 36.972 51.3561C36.42 51.7921 35.86 52.2191 35.293 52.6361C35.077 52.7951 34.85 52.9471 34.625 53.1021C37.336 50.0671 39.449 46.4561 42.809 44.0691ZM32.321 35.7701C32.342 34.9951 32.21 33.4181 33.03 32.9551C33.067 32.9341 33.102 32.9241 33.137 32.9101C33.139 33.1861 33.209 33.4661 33.257 33.7351C33.316 34.0711 33.374 34.4071 33.43 34.7441C33.55 35.4651 33.663 36.1881 33.771 36.9111C33.984 38.3341 34.173 39.7591 34.333 41.1891C34.494 42.6191 34.623 44.0521 34.721 45.4871C34.771 46.2171 34.814 46.9481 34.85 47.6791C34.862 47.9161 34.868 48.1541 34.875 48.3921C33.115 44.4461 32.207 40.0811 32.321 35.7701ZM35.403 47.9171C35.399 47.8601 35.394 47.8021 35.39 47.7451C35.342 47.0161 35.287 46.2871 35.225 45.5591C35.101 44.1031 34.952 42.6471 34.78 41.1961C34.608 39.7441 34.411 38.2941 34.182 36.8501C34.068 36.1281 33.944 35.4071 33.814 34.6871C33.754 34.3511 33.691 34.0151 33.628 33.6801C33.577 33.4131 33.542 33.1241 33.444 32.8651C34.201 32.9631 34.615 34.586 34.777 35.097C35.509 37.407 35.761 39.8591 35.758 42.2741C35.755 44.1651 35.575 46.0401 35.403 47.9171ZM44.273 20.8841C44.292 20.8581 44.316 20.8361 44.321 20.7981C44.452 19.8851 44.5 19.0161 44.829 18.1391C45.147 17.2911 45.616 16.4931 46.226 15.8211C46.843 15.1411 47.79 14.6141 48.534 15.4441C49.148 16.1291 49.143 17.2191 49.155 18.0861C49.205 21.8151 47.793 25.4701 45.215 28.1671C44.555 28.8571 43.821 29.4761 43.041 30.0261C42.656 30.2981 42.257 30.5431 41.852 30.7811C41.625 30.9151 41.385 31.0311 41.162 31.1691C41.163 31.1501 41.167 31.1321 41.168 31.1131C41.171 31.0681 41.166 31.0291 41.154 30.9941C41.736 30.1911 42.177 29.2751 42.56 28.3651C42.98 27.3681 43.317 26.3351 43.589 25.2871C43.963 23.8451 44.188 22.3691 44.273 20.8841ZM40.199 20.5331C39.976 21.6221 39.863 22.7301 39.825 23.8401C39.743 26.2111 39.986 28.5751 40.267 30.9271C39.186 29.3731 38.294 27.6851 37.658 25.9021C37.246 24.7481 36.885 23.5351 36.736 22.3151C36.6 21.2071 36.748 19.9411 37.656 19.1771C38.494 18.4721 39.863 18.6651 40.329 19.7181C40.338 19.7381 40.356 19.7441 40.369 19.7581C40.307 20.0181 40.251 20.2781 40.199 20.5331ZM40.858 30.6651C40.382 26.9071 39.981 22.9971 41.051 19.3151C41.184 18.8561 41.337 18.3981 41.525 17.9581C41.684 17.5871 41.912 17.1211 42.311 16.9601C42.739 16.7871 43.168 17.0751 43.383 17.4391C43.639 17.8711 43.657 18.4121 43.673 18.9021C43.736 20.8751 43.523 22.8681 43.073 24.7891C42.82 25.8661 42.483 26.9241 42.074 27.9521C41.706 28.8751 41.258 29.7581 40.858 30.6651ZM50.798 25.3321C49.218 27.5001 47.091 29.2701 44.683 30.4501C44.031 30.7691 43.36 31.0491 42.672 31.2821C42.156 31.4571 41.628 31.5851 41.104 31.7271C41.105 31.7141 41.108 31.7011 41.109 31.6881C41.391 31.6251 41.647 31.4921 41.921 31.3551C42.362 31.1351 42.785 30.8751 43.195 30.6021C44.012 30.0591 44.765 29.4291 45.455 28.7321C46.867 27.3051 47.982 25.5981 48.707 23.7251C49.261 22.2951 49.59 20.7801 49.681 19.2511C49.695 19.2471 49.708 19.2481 49.722 19.2421C50.332 18.9651 51.029 19.0981 51.552 19.5031C52.111 19.9351 52.371 20.6351 52.421 21.3221C52.527 22.8011 51.632 24.1881 50.798 25.3321Z" fill="#C9FFAF"/>
<path d="M14.564 4.26306C14.558 4.25506 14.547 4.25206 14.54 4.24506C14.555 4.26006 14.57 4.27507 14.585 4.29007C14.577 4.28207 14.57 4.27306 14.564 4.26306Z" fill="#C9FFAF"/>
<path d="M13.691 4.82606C13.692 4.82806 13.694 4.83008 13.695 4.83308C13.718 4.87308 13.742 4.91508 13.767 4.95408C13.824 5.02708 13.896 5.08107 13.982 5.11707C14.028 5.12907 14.073 5.14108 14.119 5.15308C14.214 5.16408 14.305 5.15108 14.392 5.11408C14.457 5.08808 14.512 5.04908 14.556 4.99708C14.609 4.95208 14.647 4.89606 14.672 4.83006C14.702 4.76306 14.714 4.69408 14.707 4.62208C14.713 4.55208 14.7 4.48408 14.669 4.42008C14.636 4.34508 14.584 4.28608 14.523 4.23408C14.518 4.22808 14.511 4.22607 14.505 4.22007C14.502 4.21607 14.502 4.21006 14.499 4.20606C14.502 4.20906 14.506 4.21307 14.509 4.21607C14.507 4.21407 14.506 4.21108 14.503 4.20908C14.498 4.20508 14.494 4.20106 14.49 4.19706C14.492 4.19906 14.494 4.20107 14.496 4.20307C14.448 4.14307 14.39 4.09806 14.319 4.06806C14.244 4.03806 14.166 4.02807 14.086 4.03907C14.009 4.05107 13.94 4.08006 13.879 4.12806C13.843 4.15806 13.809 4.19207 13.78 4.22907C13.779 4.23107 13.776 4.23408 13.776 4.23408C13.776 4.23408 13.774 4.23608 13.774 4.23808C13.767 4.25008 13.761 4.26108 13.754 4.27308C13.74 4.29208 13.719 4.30607 13.708 4.32807C13.68 4.36507 13.663 4.40708 13.657 4.45408C13.633 4.52108 13.628 4.58908 13.641 4.66108C13.653 4.71308 13.666 4.76608 13.686 4.81608C13.688 4.81808 13.689 4.82206 13.691 4.82606Z" fill="#C9FFAF"/>
<path d="M14.54 4.24506C14.53 4.23506 14.519 4.22405 14.509 4.21405C14.515 4.21905 14.517 4.22706 14.523 4.23206C14.528 4.23706 14.535 4.24006 14.54 4.24506Z" fill="#C9FFAF"/>
<path d="M12.927 6.48602C13.146 6.48602 13.19 6.14404 12.969 6.14404C12.75 6.14404 12.705 6.48602 12.927 6.48602Z" fill="#C9FFAF"/>
<path d="M43.994 15.7161C44.307 15.7161 44.598 15.5491 44.64 15.2111C44.675 14.9301 44.45 14.5651 44.135 14.5651C43.822 14.5651 43.53 14.7321 43.489 15.0701C43.455 15.3511 43.679 15.7161 43.994 15.7161Z" fill="#C9FFAF"/>
<path d="M44.169 13.5481C44.663 13.5481 44.764 12.7761 44.264 12.7761C43.77 12.7761 43.669 13.5481 44.169 13.5481Z" fill="#C9FFAF"/>
<path d="M45.48 14.141C45.567 14.26 45.759 14.2561 45.845 14.1391C45.852 14.1291 45.86 14.1191 45.867 14.1091C45.992 13.9391 45.87 13.6941 45.658 13.6961C45.447 13.6991 45.334 13.943 45.457 14.111C45.466 14.121 45.473 14.131 45.48 14.141Z" fill="#C9FFAF"/>
<path d="M41.256 15.3641C41.274 15.3851 41.296 15.4001 41.322 15.4101C41.358 15.4241 41.395 15.4291 41.433 15.4241C41.452 15.4241 41.472 15.4231 41.491 15.4231C41.5 15.4231 41.51 15.4231 41.519 15.4221C41.524 15.4221 41.529 15.4221 41.534 15.4221C41.536 15.4221 41.538 15.4221 41.54 15.4221C41.55 15.4221 41.56 15.4201 41.569 15.4151C41.579 15.4131 41.588 15.4101 41.597 15.4071C41.612 15.3981 41.627 15.3891 41.642 15.3801C41.654 15.3681 41.667 15.3551 41.679 15.3421C41.688 15.3271 41.697 15.3111 41.706 15.2961C41.718 15.2701 41.722 15.2431 41.72 15.2151C41.722 15.1971 41.72 15.1791 41.712 15.1621C41.709 15.1441 41.702 15.1281 41.691 15.1141C41.684 15.0971 41.673 15.0841 41.659 15.0731C41.641 15.0521 41.62 15.0381 41.594 15.0281C41.585 15.0241 41.575 15.0211 41.564 15.0201C41.555 15.0151 41.545 15.0131 41.536 15.0131C41.534 15.0131 41.531 15.0131 41.529 15.0131C41.524 15.0131 41.519 15.0131 41.514 15.0131C41.505 15.0131 41.495 15.0131 41.486 15.0121C41.467 15.0121 41.447 15.0111 41.428 15.0111C41.39 15.0071 41.354 15.0121 41.32 15.0271C41.305 15.0361 41.289 15.0451 41.274 15.0541C41.245 15.0771 41.223 15.1051 41.209 15.1391C41.197 15.1651 41.192 15.1931 41.195 15.2211C41.193 15.2491 41.198 15.2761 41.21 15.3011C41.219 15.3251 41.235 15.3471 41.256 15.3641Z" fill="#C9FFAF"/>
<path d="M8.255 25.749C8.288 25.782 8.322 25.815 8.355 25.848C8.434 25.908 8.523 25.944 8.621 25.956C8.696 25.968 8.76801 25.961 8.83701 25.935C8.90701 25.921 8.97 25.891 9.026 25.844C9.085 25.801 9.13 25.747 9.16 25.682C9.202 25.621 9.226 25.553 9.233 25.478C9.232 25.429 9.232 25.38 9.231 25.331C9.216 25.235 9.18 25.149 9.12 25.073C9.087 25.04 9.053 25.007 9.02 24.974C8.941 24.914 8.852 24.878 8.754 24.866C8.679 24.854 8.60699 24.861 8.53799 24.887C8.46799 24.901 8.405 24.931 8.349 24.978C8.29 25.021 8.245 25.0751 8.215 25.1401C8.173 25.2011 8.149 25.269 8.142 25.344C8.143 25.393 8.143 25.442 8.144 25.491C8.158 25.587 8.195 25.673 8.255 25.749Z" fill="#C9FFAF"/>
<path d="M9.96299 25.2431C9.93399 25.2681 9.912 25.2991 9.899 25.3351C9.882 25.3721 9.87599 25.4111 9.87899 25.4501C9.87599 25.4891 9.88299 25.5261 9.89999 25.5621C9.91399 25.5981 9.93599 25.6281 9.96499 25.6531C9.98999 25.6821 10.021 25.7041 10.057 25.7171C10.092 25.7331 10.128 25.7381 10.165 25.7351C10.169 25.7361 10.173 25.7371 10.177 25.7381C10.223 25.7431 10.266 25.7371 10.308 25.7191C10.339 25.7071 10.366 25.6881 10.387 25.6631C10.412 25.6411 10.431 25.6151 10.443 25.5831C10.453 25.5591 10.45 25.5341 10.452 25.5101C10.454 25.5011 10.457 25.4921 10.459 25.4831C10.46 25.4781 10.457 25.4741 10.457 25.4691C10.457 25.4631 10.46 25.4571 10.459 25.4501C10.457 25.4401 10.455 25.4301 10.452 25.4211C10.451 25.4231 10.451 25.4261 10.45 25.4281C10.448 25.3961 10.449 25.3631 10.436 25.3321L10.398 25.2681C10.366 25.2281 10.326 25.1971 10.279 25.1781C10.254 25.1711 10.228 25.1651 10.203 25.1581C10.15 25.1521 10.1 25.1591 10.051 25.1801C10.017 25.1931 9.98699 25.2141 9.96299 25.2431Z" fill="#C9FFAF"/>
<path d="M9.582 24.1421C9.595 24.1771 9.616 24.2051 9.644 24.2291C9.659 24.2481 9.678 24.2631 9.701 24.2721C9.732 24.2931 9.76699 24.3061 9.80499 24.3091C9.81299 24.3101 9.82 24.3111 9.828 24.3121C9.883 24.3191 9.93701 24.3111 9.98801 24.2891C10.037 24.2671 10.078 24.2351 10.111 24.1931C10.118 24.1811 10.125 24.1691 10.132 24.1561C10.143 24.1401 10.145 24.1201 10.151 24.1021C10.151 24.1071 10.151 24.1111 10.151 24.1161C10.156 24.1021 10.16 24.0871 10.165 24.0731L10.184 24.0001C10.184 23.9751 10.183 23.9501 10.183 23.9241C10.176 23.9011 10.17 23.8771 10.163 23.8541C10.149 23.8191 10.129 23.7901 10.101 23.7671C10.086 23.7471 10.067 23.7331 10.044 23.7241C10.024 23.7091 10.001 23.6991 9.976 23.6961C9.952 23.6861 9.92699 23.6831 9.90199 23.6871C9.87799 23.6851 9.855 23.6941 9.832 23.7001C9.829 23.7001 9.82501 23.6991 9.82201 23.6991C9.81301 23.7021 9.80301 23.7041 9.79401 23.7071H9.793C9.777 23.7111 9.76099 23.7161 9.74499 23.7211C9.72199 23.7351 9.698 23.7481 9.675 23.7621C9.632 23.7961 9.6 23.8371 9.58 23.8871C9.559 23.9401 9.552 23.9941 9.56 24.0501C9.561 24.0571 9.561 24.0651 9.563 24.0721C9.569 24.0961 9.575 24.1191 9.582 24.1421Z" fill="#C9FFAF"/>
<path d="M3.83701 28.4671C4.09401 28.4671 4.327 28.3311 4.364 28.0561C4.395 27.8271 4.20801 27.5291 3.95301 27.5291C3.69601 27.5291 3.463 27.6651 3.426 27.9401C3.395 28.1691 3.58201 28.4671 3.83701 28.4671Z" fill="#C9FFAF"/>
<path d="M4.24699 25.9391C4.53399 25.9391 4.592 25.4911 4.302 25.4911C4.015 25.4911 3.95699 25.9391 4.24699 25.9391Z" fill="#C9FFAF"/>
<path d="M5.61799 24.939C5.88999 24.939 5.946 24.514 5.67 24.514C5.398 24.514 5.34299 24.939 5.61799 24.939Z" fill="#C9FFAF"/>
</svg>
